<svg width="65" height="64" viewBox="0 0 65 64" fill="none" xmlns="http://www.w3.org/2000/svg">
<path d="M22.5457 39.1467C22.055 39.1467 21.7244 39.1947 21.5537 39.2427V42.3841C21.7564 42.4321 22.0097 42.4454 22.359 42.4454C23.6364 42.4454 24.423 41.8001 24.423 40.7094C24.423 39.7334 23.7457 39.1467 22.5457 39.1467ZM31.8444 39.1787C31.311 39.1787 30.9644 39.2267 30.759 39.2747V46.2347C30.9644 46.2827 31.295 46.2827 31.5937 46.2827C33.7724 46.2987 35.191 45.0987 35.191 42.5601C35.207 40.3467 33.9137 39.1787 31.8444 39.1787Z" fill="#CD7B07"/>
<path d="M37.8337 5.33337H16.5003C15.0858 5.33337 13.7293 5.89528 12.7291 6.89547C11.7289 7.89566 11.167 9.25222 11.167 10.6667V53.3334C11.167 54.7479 11.7289 56.1044 12.7291 57.1046C13.7293 58.1048 15.0858 58.6667 16.5003 58.6667H48.5003C49.9148 58.6667 51.2714 58.1048 52.2716 57.1046C53.2718 56.1044 53.8337 54.7479 53.8337 53.3334V21.3334L37.8337 5.33337ZM25.8283 43.1734C25.0043 43.9467 23.7883 44.2934 22.3723 44.2934C22.0977 44.2985 21.8231 44.2825 21.551 44.2454V48.048H19.167V37.552C20.2429 37.392 21.33 37.3189 22.4177 37.3334C23.903 37.3334 24.959 37.616 25.671 38.184C26.3483 38.7227 26.807 39.6054 26.807 40.6454C26.8043 41.6907 26.4577 42.5734 25.8283 43.1734ZM35.9803 46.7867C34.8603 47.7174 33.1563 48.16 31.0737 48.16C29.8257 48.16 28.943 48.08 28.343 48V37.5547C29.4193 37.3982 30.506 37.3242 31.5937 37.3334C33.6123 37.3334 34.9243 37.696 35.9483 38.4694C37.055 39.2907 37.7483 40.6 37.7483 42.48C37.7483 44.5147 37.0043 45.92 35.9803 46.7867ZM45.8337 39.3867H41.7483V41.816H45.567V43.7734H41.7483V48.0507H39.3323V37.4134H45.8337V39.3867ZM37.8337 24H35.167V10.6667L48.5003 24H37.8337Z" fill="#CD7B07"/>
</svg>
