<svg width="32" height="32" viewBox="0 0 32 32" fill="none" xmlns="http://www.w3.org/2000/svg">
<path d="M25.332 16C25.332 18.829 24.2082 21.5421 22.2078 23.5425C20.2074 25.5429 17.4943 26.6667 14.6654 26.6667C11.8364 26.6667 9.12328 25.5429 7.12289 23.5425C5.1225 21.5421 3.9987 18.829 3.9987 16C3.9987 13.1711 5.1225 10.458 7.12289 8.45757C9.12328 6.45718 11.8364 5.33337 14.6654 5.33337C15.6787 5.33337 16.6654 5.48004 17.5987 5.7467L19.692 3.65337C18.098 2.99605 16.3896 2.66072 14.6654 2.6667C12.9144 2.6667 11.1806 3.01158 9.56292 3.68164C7.94524 4.35171 6.47539 5.33383 5.23727 6.57195C2.73679 9.07243 1.33203 12.4638 1.33203 16C1.33203 19.5363 2.73679 22.9276 5.23727 25.4281C6.47539 26.6662 7.94524 27.6484 9.56292 28.3184C11.1806 28.9885 12.9144 29.3334 14.6654 29.3334C18.2016 29.3334 21.593 27.9286 24.0935 25.4281C26.5939 22.9276 27.9987 19.5363 27.9987 16M9.21203 13.44L7.33203 15.3334L13.332 21.3334L26.6654 8.00004L24.7854 6.1067L13.332 17.56L9.21203 13.44Z" fill="#7EB751"/>
</svg>
