<svg width="41" height="40" viewBox="0 0 41 40" fill="none" xmlns="http://www.w3.org/2000/svg">
<path d="M40.5 20C40.5 30.1009 33.0124 38.4515 23.2853 39.8066C22.3758 39.9327 21.4452 39.9986 20.5007 39.9986C19.4104 39.9986 18.3398 39.9117 17.2971 39.7436C7.77324 38.2105 0.5 29.9538 0.5 20C0.5 8.9546 9.45491 0 20.4993 0C31.5437 0 40.5 8.9546 40.5 20Z" fill="#1877F2"/>
<path d="M23.2831 16.0609V20.4177H28.6729L27.8194 26.2866H23.2831V39.8081C22.3736 39.9343 21.4431 40.0001 20.4986 40.0001C19.4083 40.0001 18.3376 39.9132 17.295 39.7451V26.2866H12.3242V20.4177H17.295V15.087C17.295 11.7798 19.9758 9.09766 23.2845 9.09766V9.10046C23.2943 9.10046 23.3027 9.09766 23.3126 9.09766H28.6743V14.1733H25.1708C24.1296 14.1733 23.2845 15.0183 23.2845 16.0595L23.2831 16.0609Z" fill="white"/>
</svg>
