<svg width="222" height="142" viewBox="0 0 222 142" fill="none" xmlns="http://www.w3.org/2000/svg">
<path d="M198.872 5.32312C181.934 -2.74211 161.294 0.597178 145.044 9.99327C136.148 15.1375 128.142 22.0106 118.532 25.6162C107.577 29.7293 95.4469 29.2308 83.9098 27.3474C72.3726 25.4619 61.0456 22.25 49.4155 21.0736C37.7854 19.8994 25.4912 20.9372 15.4526 26.9828C5.41406 33.0307 -1.73138 44.9564 0.36719 56.5735C1.82144 64.6186 7.38413 71.4336 14.047 76.0791C27.9174 85.7525 45.8783 86.9403 62.6992 85.8421C79.5181 84.7439 96.4385 81.6977 113.116 84.1558C121.069 85.3278 129.065 87.8752 135.181 93.1404C147.01 103.324 149.469 121.306 160.591 132.275C171.302 142.839 189.591 144.355 201.863 135.695C202.036 135.572 202.209 135.448 202.38 135.321C211.415 128.64 213.913 116.068 208.345 106.252C203.294 97.3461 202.096 86.1107 205.987 76.5804C209.528 67.9023 216.561 61.0134 219.945 52.2682C226.765 34.65 215.808 13.3886 198.872 5.32312Z" fill="#608C3E" fill-opacity="0.8"/>
</svg>
