<svg width="56" height="56" viewBox="0 0 56 56" fill="none" xmlns="http://www.w3.org/2000/svg">
<rect width="56" height="56" rx="10" fill="#FFF6E9"/>
<path d="M34.0262 34.0013C34.2595 33.82 34.4715 33.608 34.8942 33.1853L40.1702 27.908C40.2982 27.7813 40.2395 27.5613 40.0702 27.5013C39.2439 27.215 38.4941 26.7434 37.8782 26.1227C37.2574 25.5067 36.7859 24.7569 36.4995 23.9307C36.4395 23.7613 36.2195 23.7027 36.0928 23.8307L30.8142 29.1067C30.3915 29.5293 30.1795 29.7413 29.9982 29.9747C29.7822 30.2511 29.599 30.5471 29.4488 30.8627C29.3222 31.1293 29.2275 31.4147 29.0382 31.9827L28.7928 32.716L28.4035 33.8827L28.0395 34.976C27.9941 35.113 27.9877 35.26 28.021 35.4005C28.0543 35.5409 28.126 35.6694 28.2281 35.7714C28.3301 35.8735 28.4586 35.9452 28.599 35.9785C28.7395 36.0118 28.8865 36.0054 29.0235 35.96L30.1168 35.596L31.2835 35.2067L32.0168 34.9613C32.5848 34.772 32.8702 34.6787 33.1368 34.5507C33.4524 34.3996 33.7497 34.2165 34.0262 34.0013ZM41.8235 26.256C42.3644 25.715 42.6681 24.9812 42.668 24.2162C42.6679 23.4512 42.3639 22.7175 41.8228 22.1767C41.2818 21.6358 40.548 21.332 39.783 21.3322C39.018 21.3323 38.2844 21.6363 37.7435 22.1773L37.5755 22.348C37.4944 22.4273 37.434 22.5253 37.3996 22.6334C37.3652 22.7415 37.3578 22.8564 37.3782 22.968C37.4048 23.1107 37.4515 23.3213 37.5382 23.5707C37.7115 24.0707 38.0395 24.7267 38.6568 25.344C39.2742 25.9613 39.9302 26.2893 40.4302 26.4627C40.6808 26.5493 40.8902 26.596 41.0328 26.6227C41.1444 26.6419 41.259 26.634 41.3669 26.5996C41.4748 26.5653 41.5728 26.5055 41.6528 26.4253L41.8235 26.256Z" fill="#FF9600"/>
<path fill-rule="evenodd" clip-rule="evenodd" d="M17.5627 16.2293C16 17.7906 16 20.3053 16 25.3333V30.6666C16 35.6946 16 38.2093 17.5627 39.7706C19.1253 41.332 21.6387 41.3333 26.6667 41.3333H29.3333C34.3613 41.3333 36.876 41.3333 38.4373 39.7706C39.9747 38.2346 40 35.776 40 30.9066L36.2427 34.664C35.8827 35.024 35.588 35.3186 35.256 35.5786C34.8666 35.8836 34.4444 36.1443 33.9973 36.356C33.5882 36.5401 33.1678 36.6981 32.7387 36.8293L29.656 37.8573C29.1666 38.0205 28.6415 38.0442 28.1394 37.9257C27.6374 37.8072 27.1782 37.5512 26.8135 37.1865C26.4487 36.8217 26.1927 36.3626 26.0743 35.8605C25.9558 35.3585 25.9795 34.8333 26.1427 34.344L26.508 33.2506L27.1413 31.3493L27.1693 31.2613C27.3307 30.7786 27.4627 30.384 27.644 30.0026C27.8573 29.5546 28.1164 29.1355 28.4213 28.7453C28.6813 28.412 28.976 28.1186 29.336 27.7586L34.6773 22.416L36.16 20.9333L36.3293 20.764C36.7824 20.3095 37.3209 19.9491 37.9138 19.7036C38.5067 19.4581 39.1423 19.3322 39.784 19.3333C39.5827 17.96 39.192 16.9826 38.4373 16.2293C36.876 14.6666 34.3613 14.6666 29.3333 14.6666H26.6667C21.6387 14.6666 19.124 14.6666 17.5627 16.2293ZM21.6667 24C21.6667 23.7347 21.772 23.4804 21.9596 23.2929C22.1471 23.1053 22.4015 23 22.6667 23H31.3333C31.5985 23 31.8529 23.1053 32.0404 23.2929C32.228 23.4804 32.3333 23.7347 32.3333 24C32.3333 24.2652 32.228 24.5195 32.0404 24.7071C31.8529 24.8946 31.5985 25 31.3333 25H22.6667C22.4015 25 22.1471 24.8946 21.9596 24.7071C21.772 24.5195 21.6667 24.2652 21.6667 24ZM21.6667 29.3333C21.6667 29.0681 21.772 28.8137 21.9596 28.6262C22.1471 28.4386 22.4015 28.3333 22.6667 28.3333H26C26.2652 28.3333 26.5196 28.4386 26.7071 28.6262C26.8946 28.8137 27 29.0681 27 29.3333C27 29.5985 26.8946 29.8529 26.7071 30.0404C26.5196 30.2279 26.2652 30.3333 26 30.3333H22.6667C22.4015 30.3333 22.1471 30.2279 21.9596 30.0404C21.772 29.8529 21.6667 29.5985 21.6667 29.3333ZM21.6667 34.6666C21.6667 34.4014 21.772 34.1471 21.9596 33.9595C22.1471 33.772 22.4015 33.6666 22.6667 33.6666H24.6667C24.9319 33.6666 25.1862 33.772 25.3738 33.9595C25.5613 34.1471 25.6667 34.4014 25.6667 34.6666C25.6667 34.9318 25.5613 35.1862 25.3738 35.3737C25.1862 35.5613 24.9319 35.6666 24.6667 35.6666H22.6667C22.4015 35.6666 22.1471 35.5613 21.9596 35.3737C21.772 35.1862 21.6667 34.9318 21.6667 34.6666Z" fill="#FF9600"/>
</svg>
