<svg width="80" height="80" viewBox="0 0 80 80" fill="none" xmlns="http://www.w3.org/2000/svg">
<g clip-path="url(#clip0_260_433)">
<path d="M17.5 30C20.9612 30 24.3446 31.0263 27.2225 32.9493C30.1003 34.8722 32.3433 37.6053 33.6679 40.803C34.9924 44.0007 35.339 47.5194 34.6637 50.9141C33.9885 54.3087 32.3218 57.4269 29.8744 59.8744C27.4269 62.3218 24.3087 63.9885 20.9141 64.6637C17.5194 65.339 14.0007 64.9924 10.803 63.6679C7.60532 62.3434 4.87219 60.1003 2.94927 57.2225C1.02634 54.3446 -7.62939e-06 50.9612 -7.62939e-06 47.5L-0.0800171 45C-0.0800171 40.4037 0.825287 35.8525 2.58421 31.6061C4.34312 27.3597 6.9212 23.5013 10.1712 20.2513C13.4213 17.0012 17.2797 14.4231 21.5261 12.6642C25.7725 10.9053 30.3237 9.99999 34.92 9.99999V20C31.6355 19.9912 28.3818 20.6335 25.3472 21.89C22.3125 23.1464 19.557 24.992 17.24 27.32C16.3393 28.2187 15.5086 29.1848 14.755 30.21C15.6632 30.0683 16.5808 29.9965 17.5 29.995V30ZM62.5 30C65.9612 30 69.3446 31.0263 72.2225 32.9493C75.1003 34.8722 77.3434 37.6053 78.6679 40.803C79.9924 44.0007 80.339 47.5194 79.6637 50.9141C78.9885 54.3087 77.3218 57.4269 74.8744 59.8744C72.4269 62.3218 69.3087 63.9885 65.9141 64.6637C62.5194 65.339 59.0007 64.9924 55.803 63.6679C52.6053 62.3434 49.8722 60.1003 47.9493 57.2225C46.0263 54.3446 45 50.9612 45 47.5L44.92 45C44.92 35.7174 48.6075 26.815 55.1713 20.2513C61.735 13.6875 70.6374 9.99999 79.92 9.99999V20C76.6355 19.9912 73.3818 20.6335 70.3472 21.89C67.3125 23.1464 64.557 24.992 62.24 27.32C61.3393 28.2187 60.5086 29.1848 59.755 30.21C60.6632 30.0683 61.5808 29.9965 62.5 29.995V30Z" fill="#FF9600"/>
</g>
<defs>
<clipPath id="clip0_260_433">
<rect width="80" height="80" fill="white" transform="matrix(-1 0 0 -1 80 80)"/>
</clipPath>
</defs>
</svg>
