<svg width="28" height="28" viewBox="0 0 28 28" fill="none" xmlns="http://www.w3.org/2000/svg">
<path fill-rule="evenodd" clip-rule="evenodd" d="M3.5 10.7916C3.26794 10.7916 3.04538 10.8838 2.88128 11.0479C2.71719 11.212 2.625 11.4346 2.625 11.6666V22.1666C2.625 23.0175 2.96302 23.8336 3.5647 24.4353C4.16638 25.0369 4.98243 25.375 5.83333 25.375H18.438C18.5466 24.8895 18.7914 24.4451 19.1438 24.094L19.7622 23.4756L19.1438 22.8561C18.9001 22.6124 18.7067 22.323 18.5748 22.0045C18.4429 21.686 18.375 21.3447 18.375 21C18.375 20.6552 18.4429 20.3139 18.5748 19.9954C18.7067 19.6769 18.9001 19.3875 19.1438 19.1438C19.3876 18.9 19.677 18.7067 19.9954 18.5748C20.3139 18.4428 20.6553 18.3749 21 18.3749C21.3447 18.3749 21.6861 18.4428 22.0046 18.5748C22.323 18.7067 22.6124 18.9 22.8562 19.1438L23.4745 19.7621L24.0928 19.1438C24.4443 18.7912 24.8891 18.5463 25.375 18.438V11.6666C25.375 11.4346 25.2828 11.212 25.1187 11.0479C24.9546 10.8838 24.7321 10.7916 24.5 10.7916H3.5Z" fill="#CD7B07"/>
<path fill-rule="evenodd" clip-rule="evenodd" d="M8.16667 1.45831C8.39873 1.45831 8.62129 1.5505 8.78539 1.71459C8.94948 1.87869 9.04167 2.10125 9.04167 2.33331V6.99998C9.04167 7.23204 8.94948 7.4546 8.78539 7.6187C8.62129 7.78279 8.39873 7.87498 8.16667 7.87498C7.9346 7.87498 7.71204 7.78279 7.54795 7.6187C7.38385 7.4546 7.29167 7.23204 7.29167 6.99998V5.54165H5.83333C5.02833 5.54165 4.375 6.19498 4.375 6.99998V11.6666C4.375 11.8987 4.28281 12.1213 4.11872 12.2854C3.95462 12.4495 3.73206 12.5416 3.5 12.5416C3.26794 12.5416 3.04538 12.4495 2.88128 12.2854C2.71719 12.1213 2.625 11.8987 2.625 11.6666V6.99998C2.625 6.14908 2.96302 5.33302 3.5647 4.73135C4.16638 4.12967 4.98243 3.79165 5.83333 3.79165H7.29167V2.33331C7.29167 2.10125 7.38385 1.87869 7.54795 1.71459C7.71204 1.5505 7.9346 1.45831 8.16667 1.45831ZM17.5 1.45831C17.7321 1.45831 17.9546 1.5505 18.1187 1.71459C18.2828 1.87869 18.375 2.10125 18.375 2.33331V6.99998C18.375 7.23204 18.2828 7.4546 18.1187 7.6187C17.9546 7.78279 17.7321 7.87498 17.5 7.87498C17.2679 7.87498 17.0454 7.78279 16.8813 7.6187C16.7172 7.4546 16.625 7.23204 16.625 6.99998V5.54165H12.25C12.0179 5.54165 11.7954 5.44946 11.6313 5.28537C11.4672 5.12127 11.375 4.89871 11.375 4.66665C11.375 4.43458 11.4672 4.21202 11.6313 4.04793C11.7954 3.88383 12.0179 3.79165 12.25 3.79165H16.625V2.33331C16.625 2.10125 16.7172 1.87869 16.8813 1.71459C17.0454 1.5505 17.2679 1.45831 17.5 1.45831ZM20.7083 4.66665C20.7083 4.43458 20.8005 4.21202 20.9646 4.04793C21.1287 3.88383 21.3513 3.79165 21.5833 3.79165H22.1667C23.0176 3.79165 23.8336 4.12967 24.4353 4.73135C25.037 5.33302 25.375 6.14908 25.375 6.99998V11.6666C25.375 11.8987 25.2828 12.1213 25.1187 12.2854C24.9546 12.4495 24.7321 12.5416 24.5 12.5416C24.2679 12.5416 24.0454 12.4495 23.8813 12.2854C23.7172 12.1213 23.625 11.8987 23.625 11.6666V6.99998C23.625 6.19498 22.9717 5.54165 22.1667 5.54165H21.5833C21.3513 5.54165 21.1287 5.44946 20.9646 5.28537C20.8005 5.12127 20.7083 4.89871 20.7083 4.66665ZM20.3817 20.3816C20.5457 20.2178 20.7681 20.1258 21 20.1258C21.2319 20.1258 21.4543 20.2178 21.6183 20.3816L23.4745 22.2366L25.3307 20.3816C25.4956 20.2222 25.7166 20.1339 25.946 20.1358C26.1755 20.1376 26.395 20.2296 26.5573 20.3917C26.7196 20.5539 26.8117 20.7733 26.8138 21.0027C26.8159 21.2321 26.7278 21.4532 26.5685 21.6183L24.7123 23.4745L26.5685 25.3306C26.728 25.4956 26.8163 25.7166 26.8144 25.946C26.8125 26.1754 26.7206 26.3949 26.5584 26.5572C26.3963 26.7196 26.1768 26.8117 25.9474 26.8138C25.718 26.8159 25.4969 26.7278 25.3318 26.5685L23.4745 24.7123L21.6195 26.5685C21.5388 26.6521 21.4423 26.7188 21.3356 26.7647C21.2288 26.8106 21.114 26.8348 20.9979 26.8359C20.8817 26.8369 20.7664 26.8148 20.6589 26.7709C20.5513 26.727 20.4536 26.662 20.3714 26.5799C20.2892 26.4978 20.2242 26.4001 20.1802 26.2926C20.1361 26.1851 20.1139 26.0699 20.1149 25.9537C20.1158 25.8375 20.1399 25.7227 20.1857 25.6159C20.2315 25.5092 20.2981 25.4126 20.3817 25.3318L22.2367 23.4745L20.3817 21.6195C20.3004 21.5382 20.2359 21.4417 20.1918 21.3355C20.1478 21.2293 20.1252 21.1155 20.1252 21.0006C20.1252 20.8856 20.1478 20.7718 20.1918 20.6656C20.2359 20.5594 20.3004 20.4629 20.3817 20.3816Z" fill="#CD7B07"/>
</svg>
