<svg width="72" height="72" viewBox="0 0 72 72" fill="none" xmlns="http://www.w3.org/2000/svg">
<rect width="72" height="72" rx="36" fill="#FCE6FF"/>
<path d="M45.207 35.7083C45.5959 35.4583 45.7904 35.111 45.7904 34.6666C45.7904 34.2221 45.5959 33.8749 45.207 33.6249L37.082 28.4166C36.6654 28.1388 36.2415 28.1177 35.8104 28.3533C35.3793 28.5888 35.1643 28.9571 35.1654 29.4583V39.8749C35.1654 40.3749 35.3809 40.7433 35.812 40.9799C36.2431 41.2166 36.6665 41.1955 37.082 40.9166L45.207 35.7083ZM29.332 47.9999C28.4154 47.9999 27.6309 47.6738 26.9787 47.0216C26.3265 46.3694 25.9998 45.5844 25.9987 44.6666V24.6666C25.9987 23.7499 26.3254 22.9655 26.9787 22.3133C27.632 21.661 28.4165 21.3344 29.332 21.3333H49.332C50.2487 21.3333 51.0337 21.6599 51.687 22.3133C52.3404 22.9666 52.6665 23.751 52.6654 24.6666V44.6666C52.6654 45.5833 52.3393 46.3683 51.687 47.0216C51.0348 47.6749 50.2498 48.001 49.332 47.9999H29.332ZM22.6654 54.6666C21.7487 54.6666 20.9643 54.3405 20.312 53.6883C19.6598 53.036 19.3331 52.251 19.332 51.3333V29.6666C19.332 29.1944 19.492 28.7988 19.812 28.4799C20.132 28.161 20.5276 28.001 20.9987 27.9999C21.4698 27.9988 21.8659 28.1588 22.187 28.4799C22.5081 28.801 22.6676 29.1966 22.6654 29.6666V51.3333H44.332C44.8043 51.3333 45.2004 51.4933 45.5204 51.8133C45.8404 52.1333 45.9998 52.5288 45.9987 52.9999C45.9976 53.471 45.8376 53.8671 45.5187 54.1883C45.1998 54.5094 44.8043 54.6688 44.332 54.6666H22.6654Z" fill="#900BA4"/>
</svg>
