<svg width="72" height="72" viewBox="0 0 72 72" fill="none" xmlns="http://www.w3.org/2000/svg">
<rect width="72" height="72" rx="36" fill="#FFF7EF"/>
<path d="M49.3346 19.3333H22.668V22.6666L32.3513 29.9333C29.4125 30.9023 26.9788 32.9985 25.5849 35.7613C24.1911 38.524 23.9512 41.7271 24.918 44.6666C25.3963 46.1227 26.157 47.4703 27.1566 48.6322C28.1562 49.7941 29.3751 50.7475 30.7435 51.4379C32.1119 52.1283 33.603 52.5421 35.1315 52.6557C36.66 52.7693 38.1959 52.5805 39.6513 52.0999C41.9854 51.3327 44.0178 49.8482 45.4586 47.858C46.8994 45.8678 47.6751 43.4736 47.6751 41.0166C47.6751 38.5596 46.8994 36.1653 45.4586 34.1752C44.0178 32.185 41.9854 30.7004 39.6513 29.9333L49.3346 22.6666V19.3333ZM40.9013 48.4999L36.0013 45.6333L31.1013 48.4999L32.4013 42.9499L28.0846 39.2166L33.768 38.7333L36.0013 33.4999L38.2346 38.7333L43.918 39.2166L39.6013 42.9499L40.9013 48.4999Z" fill="#FF9520"/>
</svg>
