<svg width="48" height="48" viewBox="0 0 48 48" fill="none" xmlns="http://www.w3.org/2000/svg">
<rect width="48" height="48" rx="10" fill="#FFF7EB"/>
<path d="M17.7233 22.5883C19.4033 25.89 22.11 28.585 25.4117 30.2767L27.9783 27.71C28.2933 27.395 28.76 27.29 29.1683 27.43C30.475 27.8617 31.8867 28.095 33.3333 28.095C33.975 28.095 34.5 28.62 34.5 29.2617V33.3333C34.5 33.975 33.975 34.5 33.3333 34.5C22.3783 34.5 13.5 25.6217 13.5 14.6667C13.5 14.025 14.025 13.5 14.6667 13.5H18.75C19.3917 13.5 19.9167 14.025 19.9167 14.6667C19.9167 16.125 20.15 17.525 20.5817 18.8317C20.71 19.24 20.6167 19.695 20.29 20.0217L17.7233 22.5883Z" fill="#CD7B07"/>
</svg>
