<svg width="72" height="72" viewBox="0 0 72 72" fill="none" xmlns="http://www.w3.org/2000/svg">
<rect width="72" height="72" rx="36" fill="#FDE9E9"/>
<path d="M24.5724 24.23C24.7274 24.3848 24.8503 24.5686 24.9342 24.7709C25.0181 24.9733 25.0613 25.1901 25.0613 25.4092C25.0613 25.6282 25.0181 25.8451 24.9342 26.0474C24.8503 26.2497 24.7274 26.4335 24.5724 26.5883C22.0715 29.0897 20.6665 32.482 20.6665 36.0192C20.6665 39.5563 22.0715 42.9486 24.5724 45.45C24.7316 45.6038 24.8586 45.7877 24.946 45.991C25.0333 46.1943 25.0793 46.413 25.0812 46.6343C25.0831 46.8556 25.041 47.0751 24.9572 47.2799C24.8733 47.4848 24.7496 47.6708 24.5931 47.8273C24.4366 47.9838 24.2505 48.1076 24.0457 48.1914C23.8409 48.2752 23.6214 48.3173 23.4001 48.3154C23.1788 48.3135 22.9601 48.2675 22.7568 48.1802C22.5534 48.0928 22.3695 47.9659 22.2158 47.8067C15.7041 41.2967 15.7041 30.74 22.2158 24.23C22.5283 23.9176 22.9522 23.742 23.3941 23.742C23.8361 23.742 24.2599 23.9176 24.5724 24.23ZM45.7924 24.23C52.3024 30.7417 52.3024 41.2967 45.7924 47.8067C45.4799 48.1194 45.056 48.2952 44.6139 48.2953C44.1718 48.2955 43.7477 48.12 43.4349 47.8075C43.1222 47.495 42.9464 47.071 42.9463 46.6289C42.9461 46.1868 43.1216 45.7627 43.4341 45.45C45.9351 42.9486 47.34 39.5563 47.34 36.0192C47.34 32.482 45.9351 29.0897 43.4341 26.5883C43.1214 26.2756 42.9457 25.8514 42.9457 25.4092C42.9457 24.9669 43.1214 24.5427 43.4341 24.23C43.7469 23.9173 44.171 23.7416 44.6133 23.7416C45.0556 23.7416 45.4797 23.9173 45.7924 24.23ZM29.5174 29.02C29.8299 29.3326 30.0054 29.7564 30.0054 30.1983C30.0054 30.6403 29.8299 31.0641 29.5174 31.3767C28.9107 31.9834 28.4294 32.7036 28.101 33.4963C27.7727 34.289 27.6036 35.1386 27.6036 35.9967C27.6036 36.8547 27.7727 37.7043 28.101 38.497C28.4294 39.2897 28.9107 40.01 29.5174 40.6167C29.6722 40.7715 29.7949 40.9553 29.8786 41.1576C29.9623 41.3599 30.0054 41.5767 30.0053 41.7956C30.0052 42.0145 29.962 42.2313 29.8782 42.4335C29.7943 42.6357 29.6715 42.8194 29.5166 42.9742C29.3618 43.1289 29.178 43.2516 28.9757 43.3353C28.7734 43.419 28.5566 43.4621 28.3377 43.462C28.1188 43.4619 27.902 43.4187 27.6998 43.3349C27.4976 43.251 27.3139 43.1282 27.1591 42.9733C25.3088 41.123 24.2694 38.6134 24.2694 35.9967C24.2694 33.3799 25.3088 30.8704 27.1591 29.02C27.3139 28.865 27.4977 28.7421 27.7 28.6582C27.9024 28.5744 28.1193 28.5312 28.3383 28.5312C28.5573 28.5312 28.7742 28.5744 28.9765 28.6582C29.1788 28.7421 29.3627 28.865 29.5174 29.02ZM41.1141 29.02C42.9644 30.8704 44.0039 33.3799 44.0039 35.9967C44.0039 38.6134 42.9644 41.123 41.1141 42.9733C40.7998 43.2769 40.3788 43.4449 39.9418 43.4411C39.5048 43.4373 39.0868 43.262 38.7778 42.953C38.4687 42.644 38.2935 42.226 38.2897 41.789C38.2859 41.352 38.4539 40.931 38.7575 40.6167C39.3642 40.01 39.8455 39.2897 40.1739 38.497C40.5022 37.7043 40.6713 36.8547 40.6713 35.9967C40.6713 35.1386 40.5022 34.289 40.1739 33.4963C39.8455 32.7036 39.3642 31.9834 38.7575 31.3767C38.4539 31.0623 38.2859 30.6413 38.2897 30.2043C38.2935 29.7673 38.4687 29.3493 38.7778 29.0403C39.0868 28.7313 39.5048 28.556 39.9418 28.5522C40.3788 28.5484 40.7998 28.7164 41.1141 29.02ZM34.1374 33.6367C34.8005 33.6367 35.4364 33.9001 35.9052 34.3689C36.3741 34.8377 36.6374 35.4736 36.6374 36.1367C36.6374 36.7997 36.3741 37.4356 35.9052 37.9044C35.4364 38.3733 34.8005 38.6367 34.1374 38.6367C33.4744 38.6367 32.8385 38.3733 32.3697 37.9044C31.9008 37.4356 31.6374 36.7997 31.6374 36.1367C31.6374 35.4736 31.9008 34.8377 32.3697 34.3689C32.8385 33.9001 33.4744 33.6367 34.1374 33.6367Z" fill="#BD0606"/>
</svg>
