<svg width="48" height="48" viewBox="0 0 48 48" fill="none" xmlns="http://www.w3.org/2000/svg">
<rect width="48" height="48" rx="10" fill="#FFF7EB"/>
<path d="M16.8924 34.787H31.1189C33.5684 34.787 34.7869 33.5685 34.7869 31.1545V16.845C34.7869 14.431 33.5684 13.2125 31.1189 13.2125H16.8924C14.4549 13.2125 13.2124 14.4195 13.2124 16.845V31.155C13.2124 33.5805 14.4549 34.787 16.8924 34.787ZM20.8414 29.9945C20.3379 29.9945 19.9629 29.561 20.0684 29.069L20.5604 26.6315H19.4589C19.0489 26.6315 18.7674 26.3265 18.7674 25.9165C18.7674 25.4365 19.1074 25.0845 19.5874 25.0845H20.9004L21.4159 22.5885H20.3379C19.9279 22.5885 19.6349 22.2835 19.6349 21.862C19.6349 21.393 19.9864 21.03 20.4549 21.03H21.7439L22.2829 18.51C22.3649 18.0415 22.6699 17.807 23.1619 17.807C23.6774 17.807 24.0289 18.2405 23.9239 18.733L23.4549 21.03H25.7399L26.2674 18.51C26.3614 18.0415 26.6774 17.807 27.1579 17.807C27.6619 17.807 28.0369 18.229 27.9314 18.733L27.4629 21.03H28.5529C28.9509 21.03 29.2439 21.3345 29.2439 21.7565C29.2439 22.2365 28.9039 22.5885 28.4239 22.5885H27.1349L26.6074 25.0845H27.6739C28.0839 25.0845 28.3769 25.3895 28.3769 25.7995C28.3769 26.2795 28.0254 26.6315 27.5569 26.6315H26.2794L25.7169 29.28C25.6229 29.7485 25.3069 29.995 24.8144 29.995C24.3104 29.995 23.9589 29.561 24.0644 29.069L24.5564 26.643H22.2714L21.7199 29.28C21.6264 29.7485 21.3219 29.9945 20.8414 29.9945ZM22.4934 25.2255H24.9659L25.5404 22.4715H23.0679L22.4934 25.2255Z" fill="#CD7B07"/>
</svg>
