<svg width="48" height="48" viewBox="0 0 48 48" fill="none" xmlns="http://www.w3.org/2000/svg">
<rect width="48" height="48" rx="10" fill="#FFF7EB"/>
<path fill-rule="evenodd" clip-rule="evenodd" d="M13.5 20.7916C13.2679 20.7916 13.0454 20.8838 12.8813 21.0479C12.7172 21.212 12.625 21.4346 12.625 21.6666V32.1666C12.625 33.0175 12.963 33.8336 13.5647 34.4353C14.1664 35.0369 14.9824 35.375 15.8333 35.375H28.438C28.5466 34.8895 28.7914 34.4451 29.1438 34.094L29.7622 33.4756L29.1438 32.8561C28.9001 32.6124 28.7067 32.323 28.5748 32.0045C28.4429 31.686 28.375 31.3447 28.375 31C28.375 30.6552 28.4429 30.3139 28.5748 29.9954C28.7067 29.6769 28.9001 29.3875 29.1438 29.1438C29.3876 28.9 29.677 28.7067 29.9954 28.5748C30.3139 28.4428 30.6553 28.3749 31 28.3749C31.3447 28.3749 31.6861 28.4428 32.0046 28.5748C32.323 28.7067 32.6124 28.9 32.8562 29.1438L33.4745 29.7621L34.0928 29.1438C34.4443 28.7912 34.8891 28.5463 35.375 28.438V21.6666C35.375 21.4346 35.2828 21.212 35.1187 21.0479C34.9546 20.8838 34.7321 20.7916 34.5 20.7916H13.5Z" fill="#CD7B07"/>
<path fill-rule="evenodd" clip-rule="evenodd" d="M18.1667 11.4583C18.3987 11.4583 18.6213 11.5505 18.7854 11.7146C18.9495 11.8787 19.0417 12.1012 19.0417 12.3333V17C19.0417 17.232 18.9495 17.4546 18.7854 17.6187C18.6213 17.7828 18.3987 17.875 18.1667 17.875C17.9346 17.875 17.712 17.7828 17.5479 17.6187C17.3839 17.4546 17.2917 17.232 17.2917 17V15.5416H15.8333C15.0283 15.5416 14.375 16.195 14.375 17V21.6666C14.375 21.8987 14.2828 22.1213 14.1187 22.2854C13.9546 22.4495 13.7321 22.5416 13.5 22.5416C13.2679 22.5416 13.0454 22.4495 12.8813 22.2854C12.7172 22.1213 12.625 21.8987 12.625 21.6666V17C12.625 16.1491 12.963 15.333 13.5647 14.7313C14.1664 14.1297 14.9824 13.7916 15.8333 13.7916H17.2917V12.3333C17.2917 12.1012 17.3839 11.8787 17.5479 11.7146C17.712 11.5505 17.9346 11.4583 18.1667 11.4583ZM27.5 11.4583C27.7321 11.4583 27.9546 11.5505 28.1187 11.7146C28.2828 11.8787 28.375 12.1012 28.375 12.3333V17C28.375 17.232 28.2828 17.4546 28.1187 17.6187C27.9546 17.7828 27.7321 17.875 27.5 17.875C27.2679 17.875 27.0454 17.7828 26.8813 17.6187C26.7172 17.4546 26.625 17.232 26.625 17V15.5416H22.25C22.0179 15.5416 21.7954 15.4495 21.6313 15.2854C21.4672 15.1213 21.375 14.8987 21.375 14.6666C21.375 14.4346 21.4672 14.212 21.6313 14.0479C21.7954 13.8838 22.0179 13.7916 22.25 13.7916H26.625V12.3333C26.625 12.1012 26.7172 11.8787 26.8813 11.7146C27.0454 11.5505 27.2679 11.4583 27.5 11.4583ZM30.7083 14.6666C30.7083 14.4346 30.8005 14.212 30.9646 14.0479C31.1287 13.8838 31.3513 13.7916 31.5833 13.7916H32.1667C33.0176 13.7916 33.8336 14.1297 34.4353 14.7313C35.037 15.333 35.375 16.1491 35.375 17V21.6666C35.375 21.8987 35.2828 22.1213 35.1187 22.2854C34.9546 22.4495 34.7321 22.5416 34.5 22.5416C34.2679 22.5416 34.0454 22.4495 33.8813 22.2854C33.7172 22.1213 33.625 21.8987 33.625 21.6666V17C33.625 16.195 32.9717 15.5416 32.1667 15.5416H31.5833C31.3513 15.5416 31.1287 15.4495 30.9646 15.2854C30.8005 15.1213 30.7083 14.8987 30.7083 14.6666ZM30.3817 30.3816C30.5457 30.2178 30.7681 30.1258 31 30.1258C31.2319 30.1258 31.4543 30.2178 31.6183 30.3816L33.4745 32.2366L35.3307 30.3816C35.4956 30.2222 35.7166 30.1339 35.946 30.1358C36.1755 30.1376 36.395 30.2296 36.5573 30.3917C36.7196 30.5539 36.8117 30.7733 36.8138 31.0027C36.8159 31.2321 36.7278 31.4532 36.5685 31.6183L34.7123 33.4745L36.5685 35.3306C36.728 35.4956 36.8163 35.7166 36.8144 35.946C36.8125 36.1754 36.7206 36.3949 36.5584 36.5572C36.3963 36.7196 36.1768 36.8117 35.9474 36.8138C35.718 36.8159 35.4969 36.7278 35.3318 36.5685L33.4745 34.7123L31.6195 36.5685C31.5388 36.6521 31.4423 36.7188 31.3356 36.7647C31.2288 36.8106 31.114 36.8348 30.9979 36.8359C30.8817 36.8369 30.7664 36.8148 30.6589 36.7709C30.5513 36.727 30.4536 36.662 30.3714 36.5799C30.2892 36.4978 30.2242 36.4001 30.1802 36.2926C30.1361 36.1851 30.1139 36.0699 30.1149 35.9537C30.1158 35.8375 30.1399 35.7227 30.1857 35.6159C30.2315 35.5092 30.2981 35.4126 30.3817 35.3318L32.2367 33.4745L30.3817 31.6195C30.3004 31.5382 30.2359 31.4417 30.1918 31.3355C30.1478 31.2293 30.1252 31.1155 30.1252 31.0006C30.1252 30.8856 30.1478 30.7718 30.1918 30.6656C30.2359 30.5594 30.3004 30.4629 30.3817 30.3816Z" fill="#CD7B07"/>
</svg>
