<svg width="72" height="72" viewBox="0 0 72 72" fill="none" xmlns="http://www.w3.org/2000/svg">
<rect width="72" height="72" rx="36" fill="#EEE8FF"/>
<path fill-rule="evenodd" clip-rule="evenodd" d="M22.25 21C21.9185 21 21.6005 21.1317 21.3661 21.3661C21.1317 21.6005 21 21.9185 21 22.25V49.75C21 50.0815 21.1317 50.3995 21.3661 50.6339C21.6005 50.8683 21.9185 51 22.25 51H49.75C50.0815 51 50.3995 50.8683 50.6339 50.6339C50.8683 50.3995 51 50.0815 51 49.75V22.25C51 21.9185 50.8683 21.6005 50.6339 21.3661C50.3995 21.1317 50.0815 21 49.75 21H22.25ZM26 31H41V28.5H26V31ZM43.5 31H46V28.5H43.5V31ZM41 37.25H26V34.75H41V37.25ZM43.5 37.25H46V34.75H43.5V37.25ZM41 43.5H26V41H41V43.5ZM43.5 43.5H46V41H43.5V43.5Z" fill="#1F4E79"/>
</svg>
