<svg width="72" height="72" viewBox="0 0 72 72" fill="none" xmlns="http://www.w3.org/2000/svg">
<rect width="72" height="72" rx="36" fill="#EFFFF3"/>
<path d="M25.0333 33.9833C27.4333 38.7 31.3 42.5667 36.0167 44.9667L39.6833 41.3C40.15 40.8333 40.8 40.7 41.3833 40.8833C43.25 41.5 45.25 41.8333 47.3333 41.8333C47.7754 41.8333 48.1993 42.0089 48.5118 42.3215C48.8244 42.634 49 43.058 49 43.5V49.3333C49 49.7754 48.8244 50.1993 48.5118 50.5118C48.1993 50.8244 47.7754 51 47.3333 51C39.8189 51 32.6122 48.0149 27.2986 42.7014C21.9851 37.3878 19 30.1811 19 22.6667C19 22.2246 19.1756 21.8007 19.4882 21.4882C19.8007 21.1756 20.2246 21 20.6667 21H26.5C26.942 21 27.366 21.1756 27.6785 21.4882C27.9911 21.8007 28.1667 22.2246 28.1667 22.6667C28.1667 24.75 28.5 26.75 29.1167 28.6167C29.3 29.2 29.1667 29.85 28.7 30.3167L25.0333 33.9833Z" fill="#28A745"/>
</svg>
