<svg width="48" height="48" viewBox="0 0 48 48" fill="none" xmlns="http://www.w3.org/2000/svg">
<rect width="48" height="48" rx="10" fill="#FFF7EB"/>
<path fill-rule="evenodd" clip-rule="evenodd" d="M23.9997 12.3334C25.5317 12.3334 27.0488 12.6351 28.4643 13.2214C29.8798 13.8077 31.1659 14.6671 32.2493 15.7504C33.3326 16.8338 34.192 18.1199 34.7783 19.5354C35.3646 20.9508 35.6664 22.4679 35.6664 24C35.6664 30.4434 30.443 35.6667 23.9997 35.6667C17.5564 35.6667 12.333 30.4434 12.333 24C12.333 17.5567 17.5564 12.3334 23.9997 12.3334ZM25.1664 25.1667H22.833C19.9447 25.1667 17.465 26.916 16.3955 29.4131C18.0877 31.786 20.863 33.3334 23.9997 33.3334C27.1363 33.3334 29.9116 31.786 31.6039 29.4129C30.5344 26.916 28.0547 25.1667 25.1664 25.1667ZM23.9997 15.8334C22.0667 15.8334 20.4997 17.4004 20.4997 19.3334C20.4997 21.2664 22.0667 22.8334 23.9997 22.8334C25.9326 22.8334 27.4997 21.2664 27.4997 19.3334C27.4997 17.4004 25.9327 15.8334 23.9997 15.8334Z" fill="#CD7B07"/>
</svg>
