<svg width="72" height="72" viewBox="0 0 72 72" fill="none" xmlns="http://www.w3.org/2000/svg">
<rect width="72" height="72" rx="36" fill="#FFFAE2"/>
<path fill-rule="evenodd" clip-rule="evenodd" d="M18 23C18 22.2044 18.3161 21.4413 18.8787 20.8787C19.4413 20.3161 20.2044 20 21 20H39C39.7956 20 40.5587 20.3161 41.1213 20.8787C41.6839 21.4413 42 22.2044 42 23V46.5C42 47.9587 42.5795 49.3576 43.6109 50.3891C44.6424 51.4205 46.0413 52 47.5 52H23.5C22.0413 52 20.6424 51.4205 19.6109 50.3891C18.5795 49.3576 18 47.9587 18 46.5V23ZM25.5 37C25.1022 37 24.7206 37.158 24.4393 37.4393C24.158 37.7206 24 38.1022 24 38.5C24 38.8978 24.158 39.2794 24.4393 39.5607C24.7206 39.842 25.1022 40 25.5 40H34.5C34.8978 40 35.2794 39.842 35.5607 39.5607C35.842 39.2794 36 38.8978 36 38.5C36 38.1022 35.842 37.7206 35.5607 37.4393C35.2794 37.158 34.8978 37 34.5 37H25.5ZM25.5 43C25.1022 43 24.7206 43.158 24.4393 43.4393C24.158 43.7206 24 44.1022 24 44.5C24 44.8978 24.158 45.2794 24.4393 45.5607C24.7206 45.842 25.1022 46 25.5 46H34.5C34.8978 46 35.2794 45.842 35.5607 45.5607C35.842 45.2794 36 44.8978 36 44.5C36 44.1022 35.842 43.7206 35.5607 43.4393C35.2794 43.158 34.8978 43 34.5 43H25.5ZM24 27.5C24 27.1022 24.158 26.7206 24.4393 26.4393C24.7206 26.158 25.1022 26 25.5 26H34.5C34.8978 26 35.2794 26.158 35.5607 26.4393C35.842 26.7206 36 27.1022 36 27.5V32.5C36 32.8978 35.842 33.2794 35.5607 33.5607C35.2794 33.842 34.8978 34 34.5 34H25.5C25.1022 34 24.7206 33.842 24.4393 33.5607C24.158 33.2794 24 32.8978 24 32.5V27.5Z" fill="#E2BA0E"/>
<path d="M47 29H45V46.5C45 47.163 45.2634 47.7989 45.7322 48.2678C46.2011 48.7366 46.837 49 47.5 49C48.163 49 48.7989 48.7366 49.2678 48.2678C49.7366 47.7989 50 47.163 50 46.5V32C50 31.2044 49.6839 30.4413 49.1213 29.8787C48.5587 29.3161 47.7956 29 47 29Z" fill="#E2BA0E"/>
</svg>
