<svg width="72" height="72" viewBox="0 0 72 72" fill="none" xmlns="http://www.w3.org/2000/svg">
<rect width="72" height="72" rx="36" fill="#F2F2FF"/>
<path d="M36 21.005C35.344 21.005 34.6945 21.1342 34.0885 21.3852C33.4825 21.6362 32.9318 22.0042 32.468 22.468C32.0042 22.9318 31.6362 23.4825 31.3852 24.0885C31.1342 24.6945 31.005 25.3441 31.005 26C31.005 26.656 31.1342 27.3055 31.3852 27.9115C31.6362 28.5175 32.0042 29.0682 32.468 29.532C32.9318 29.9958 33.4825 30.3638 34.0885 30.6148C34.6945 30.8658 35.344 30.995 36 30.995C37.3248 30.995 38.5953 30.4687 39.532 29.532C40.4687 28.5953 40.995 27.3248 40.995 26C40.995 24.6752 40.4687 23.4048 39.532 22.468C38.5953 21.5313 37.3248 21.005 36 21.005ZM47.25 23.5C46.2554 23.5 45.3016 23.8951 44.5983 24.5984C43.8951 25.3016 43.5 26.2554 43.5 27.25C43.5 28.2446 43.8951 29.1984 44.5983 29.9017C45.3016 30.6049 46.2554 31 47.25 31C48.2446 31 49.1984 30.6049 49.9017 29.9017C50.6049 29.1984 51 28.2446 51 27.25C51 26.2554 50.6049 25.3016 49.9017 24.5984C49.1984 23.8951 48.2446 23.5 47.25 23.5ZM24.75 23.5C23.7554 23.5 22.8016 23.8951 22.0984 24.5984C21.3951 25.3016 21 26.2554 21 27.25C21 28.2446 21.3951 29.1984 22.0984 29.9017C22.8016 30.6049 23.7554 31 24.75 31C25.7446 31 26.6984 30.6049 27.4017 29.9017C28.1049 29.1984 28.5 28.2446 28.5 27.25C28.5 26.2554 28.1049 25.3016 27.4017 24.5984C26.6984 23.8951 25.7446 23.5 24.75 23.5ZM28.5 35.9825C28.5046 35.3225 28.7701 34.6911 29.2384 34.226C29.7067 33.761 30.34 33.5 31 33.5H41C41.663 33.5 42.2989 33.7634 42.7678 34.2322C43.2366 34.7011 43.5 35.337 43.5 36V43.5C43.5007 44.2869 43.3775 45.0689 43.135 45.8175C42.5814 47.5143 41.4411 48.9581 39.9188 49.8897C38.3965 50.8214 36.5919 51.1798 34.8291 50.9007C33.0663 50.6215 31.4607 49.7231 30.3007 48.3667C29.1407 47.0103 28.5023 45.2848 28.5 43.5V35.9825ZM26 36C26 35.0875 26.2425 34.235 26.67 33.5H21C20.337 33.5 19.7011 33.7634 19.2322 34.2322C18.7634 34.7011 18.5 35.337 18.5 36V42.25C18.4997 43.2733 18.7506 44.281 19.2307 45.1846C19.7108 46.0882 20.4054 46.8602 21.2536 47.4326C22.1018 48.005 23.0775 48.3605 24.0951 48.4677C25.1128 48.5749 26.1412 48.4306 27.09 48.0475C26.372 46.6384 25.9984 45.079 26 43.4975V36ZM46 36V43.5C46 45.1375 45.6075 46.6825 44.91 48.0475C45.8588 48.4306 46.8872 48.5749 47.9049 48.4677C48.9225 48.3605 49.8982 48.005 50.7464 47.4326C51.5946 46.8602 52.2892 46.0882 52.7693 45.1846C53.2494 44.281 53.5003 43.2733 53.5 42.25V36C53.5 35.337 53.2366 34.7011 52.7678 34.2322C52.2989 33.7634 51.663 33.5 51 33.5H45.33C45.755 34.235 46 35.0875 46 36Z" fill="#3077C8"/>
</svg>
