<svg width="72" height="72" viewBox="0 0 72 72" fill="none" xmlns="http://www.w3.org/2000/svg">
<rect width="72" height="72" rx="36" fill="#EDFEF0"/>
<path d="M47.6667 22.6667H40.7C40.3587 21.6924 39.7231 20.8483 38.8811 20.251C38.0391 19.6538 37.0323 19.333 36 19.333C34.9677 19.333 33.9609 19.6538 33.1189 20.251C32.2769 20.8483 31.6413 21.6924 31.3 22.6667H24.3333C23.4501 22.6693 22.6038 23.0214 21.9792 23.6459C21.3547 24.2705 21.0026 25.1168 21 26V49.3333C21.0026 50.2166 21.3547 51.0629 21.9792 51.6875C22.6038 52.312 23.4501 52.664 24.3333 52.6667H47.6667C48.5499 52.664 49.3962 52.312 50.0208 51.6875C50.6453 51.0629 50.9974 50.2166 51 49.3333V26C50.9974 25.1168 50.6453 24.2705 50.0208 23.6459C49.3962 23.0214 48.5499 22.6693 47.6667 22.6667ZM36 22.6667C36.3296 22.6667 36.6519 22.7644 36.926 22.9476C37.2 23.1307 37.4137 23.391 37.5398 23.6955C37.6659 24.0001 37.6989 24.3352 37.6346 24.6585C37.5703 24.9818 37.4116 25.2788 37.1785 25.5119C36.9454 25.7449 36.6485 25.9037 36.3252 25.968C36.0018 26.0323 35.6667 25.9993 35.3622 25.8731C35.0576 25.747 34.7974 25.5334 34.6142 25.2593C34.4311 24.9852 34.3333 24.663 34.3333 24.3333C34.3347 23.8917 34.5107 23.4686 34.8229 23.1563C35.1352 22.844 35.5584 22.668 36 22.6667ZM32.6667 31L37.3167 35.6567L41.5167 31.4567L39.3333 29.3333H46V36L43.8733 33.815L37.32 40.3733L32.6667 35.7167L28.3567 40.0233L26 37.6667L32.6667 31ZM47.6667 47.6667H24.3333V44.3333H47.6667V47.6667Z" fill="#3AD0B2"/>
</svg>
