<svg width="41" height="40" viewBox="0 0 41 40" fill="none" xmlns="http://www.w3.org/2000/svg">
<path d="M20.5 40C31.5457 40 40.5 31.0457 40.5 20C40.5 8.95431 31.5457 0 20.5 0C9.4543 0 0.5 8.95431 0.5 20C0.5 31.0457 9.4543 40 20.5 40Z" fill="url(#paint0_linear_260_59800)"/>
<path d="M26.9705 18.8189C30.5566 20.3281 32.3209 23.9408 31.1508 27.6796C30.3534 30.2314 28.0818 32.2928 25.6477 33.2247C22.5787 34.4032 18.4573 34.3275 15.4304 33.0719C9.29114 30.5285 7.85898 23.4657 8.46856 17.5899C8.89317 13.4769 10.6056 9.46767 14.3864 7.4063C17.2354 5.8466 20.8817 5.62518 24.0011 6.27821C27.2396 6.95646 29.8685 8.8721 31.4619 11.7729C31.9537 12.6627 32.3517 13.6465 32.6488 14.7409C32.6572 14.783 32.6404 14.8264 32.5983 14.8348L30.3436 15.429C30.3015 15.4374 30.2581 15.4122 30.2497 15.3785C29.9105 14.0893 29.3766 12.9444 28.6381 11.9453C26.3315 8.80764 22.1009 7.96823 18.4546 8.62126C14.1552 9.3934 11.7813 12.4119 11.0863 16.5571C10.5187 19.9231 10.6967 23.8231 12.248 26.927C13.554 29.5391 15.9195 31.0049 18.7685 31.4127C20.3029 31.6243 21.8038 31.5991 23.271 31.3273C25.3744 30.9377 27.6292 29.5461 28.5442 27.5534C29.1384 26.2642 29.1973 24.6288 28.5442 23.348C28.1715 22.6193 27.611 22.0335 26.8739 21.5935C26.8402 21.5683 26.7884 21.5851 26.7716 21.6187C26.7631 21.6271 26.7631 21.6356 26.7631 21.644C26.6777 22.2718 26.5347 22.8898 26.3217 23.4923C26.0162 24.3486 25.5762 25.0871 24.9905 25.6882C23.023 27.7146 19.5981 27.8926 17.283 26.4338C15.4347 25.2636 14.7396 22.8729 15.621 20.9055C16.5361 18.8707 18.7755 17.9893 20.9027 17.887C22.1065 17.8281 23.2177 17.8785 24.2435 18.0229C24.2856 18.0313 24.3192 17.9977 24.329 17.9556V17.9304C24.2351 17.4638 24.1258 17.0826 23.9899 16.7855C23.278 15.2174 21.6749 14.8012 20.0731 15.0044C19.0473 15.1319 18.2415 15.6154 17.639 16.4464C17.6137 16.48 17.5717 16.4884 17.5367 16.4632L15.621 15.1571C15.5874 15.1319 15.579 15.0899 15.6042 15.0464C16.63 13.6044 18.0201 12.765 19.7844 12.5366C21.2432 12.3418 22.8786 12.5703 24.151 13.3424C26.0583 14.5125 26.7365 16.6159 26.9061 18.7432C26.9229 18.7852 26.9397 18.8104 26.9649 18.8189H26.9705ZM17.8211 22.1428C17.44 23.4237 18.3214 24.4326 19.5168 24.7367C21.1956 25.1613 23.0608 24.7872 23.8582 23.0663C24.1721 22.3881 24.3584 21.5907 24.4173 20.684C24.4173 20.642 24.3921 20.6084 24.3584 20.6084C23.1126 20.3631 21.8318 20.3113 20.5257 20.4388C19.4663 20.5495 18.1519 21.033 17.8211 22.1428Z" fill="white"/>
<defs>
<linearGradient id="paint0_linear_260_59800" x1="0.5" y1="20" x2="40.5" y2="20" gradientUnits="userSpaceOnUse">
<stop stop-color="#FAAD4F"/>
<stop offset="0.35" stop-color="#DD2A7B"/>
<stop offset="0.62" stop-color="#9537B0"/>
<stop offset="1" stop-color="#515BD4"/>
</linearGradient>
</defs>
</svg>
