<svg width="41" height="40" viewBox="0 0 41 40" fill="none" xmlns="http://www.w3.org/2000/svg">
<path d="M20.5455 0H20.4545C9.43393 0 0.5 8.93392 0.5 19.9545V20.0455C0.5 31.0661 9.43393 40 20.4545 40H20.5455C31.5661 40 40.5 31.0661 40.5 20.0455V19.9545C40.5 8.93392 31.5661 0 20.5455 0Z" fill="#007EBB"/>
<path d="M10.039 13.2946C9.51204 12.8056 9.25 12.2002 9.25 11.4799C9.25 10.7596 9.51345 10.1276 10.039 9.63714C10.5659 9.14807 11.2442 8.90283 12.0752 8.90283C12.9062 8.90283 13.5579 9.14807 14.0834 9.63714C14.6103 10.1262 14.8724 10.7414 14.8724 11.4799C14.8724 12.2184 14.6089 12.8056 14.0834 13.2946C13.5565 13.7837 12.888 14.029 12.0752 14.029C11.2624 14.029 10.5659 13.7837 10.039 13.2946ZM14.4295 16.1001V31.0945H9.69143V16.1001H14.4295Z" fill="#FEFFFC"/>
<path d="M30.2008 17.5847C31.2337 18.7058 31.7494 20.2444 31.7494 22.2035V30.833H27.2495V22.8117C27.2495 21.8238 26.9931 21.0558 26.4816 20.5093C25.9701 19.9628 25.2806 19.6881 24.4173 19.6881C23.5541 19.6881 22.8645 19.9614 22.353 20.5093C21.8415 21.0558 21.5851 21.8238 21.5851 22.8117V30.833H17.0586V16.0614H21.5851V18.0205C22.0433 17.3675 22.6614 16.8518 23.4377 16.472C24.2141 16.0923 25.0872 15.9031 26.0583 15.9031C27.7877 15.9031 29.1694 16.4636 30.2008 17.5847Z" fill="#FEFFFC"/>
</svg>
