<svg width="32" height="32" viewBox="0 0 32 32" fill="none" xmlns="http://www.w3.org/2000/svg">
<path d="M16 23.0334L10.4666 26.3667C10.2222 26.5223 9.96662 26.5889 9.69995 26.5667C9.43328 26.5445 9.19995 26.4556 8.99995 26.3001C8.79995 26.1445 8.64439 25.9503 8.53328 25.7174C8.42217 25.4845 8.39995 25.2232 8.46662 24.9334L9.93328 18.6334L5.03328 14.4001C4.81106 14.2001 4.67239 13.9721 4.61728 13.7161C4.56217 13.4601 4.57862 13.2103 4.66662 12.9667C4.75462 12.7232 4.88795 12.5232 5.06662 12.3667C5.24528 12.2103 5.48973 12.1103 5.79995 12.0667L12.2666 11.5001L14.7666 5.56672C14.8777 5.30006 15.0502 5.10006 15.284 4.96672C15.5177 4.83339 15.7564 4.76672 16 4.76672C16.2435 4.76672 16.4822 4.83339 16.716 4.96672C16.9497 5.10006 17.1222 5.30006 17.2333 5.56672L19.7333 11.5001L26.1999 12.0667C26.5111 12.1112 26.7555 12.2112 26.9333 12.3667C27.1111 12.5223 27.2444 12.7223 27.3333 12.9667C27.4222 13.2112 27.4391 13.4614 27.3839 13.7174C27.3288 13.9734 27.1897 14.2009 26.9666 14.4001L22.0666 18.6334L23.5333 24.9334C23.6 25.2223 23.5777 25.4836 23.4666 25.7174C23.3555 25.9512 23.2 26.1454 23 26.3001C22.8 26.4547 22.5666 26.5436 22.3 26.5667C22.0333 26.5898 21.7777 26.5232 21.5333 26.3667L16 23.0334Z" fill="#FF9600"/>
</svg>
