<svg width="32" height="33" viewBox="0 0 32 33" fill="none" xmlns="http://www.w3.org/2000/svg">
<path d="M14.333 16.5C14.333 16.058 14.5086 15.6341 14.8212 15.3215C15.1337 15.009 15.5576 14.8334 15.9997 14.8334C16.4417 14.8334 16.8656 15.009 17.1782 15.3215C17.4907 15.6341 17.6663 16.058 17.6663 16.5C17.6663 16.9421 17.4907 17.366 17.1782 17.6786C16.8656 17.9911 16.4417 18.1667 15.9997 18.1667C15.5576 18.1667 15.1337 17.9911 14.8212 17.6786C14.5086 17.366 14.333 16.9421 14.333 16.5Z" fill="#3D7CFB"/>
<path d="M2.59043 14.0374C4.61043 11.2654 9.22377 6.16669 15.9998 6.16669C22.7758 6.16669 27.3891 11.2654 29.4091 14.0374L29.4398 14.0787C29.7838 14.552 30.0638 14.936 30.2371 15.6014C30.3104 15.884 30.3331 16.22 30.3331 16.5C30.3331 16.78 30.3104 17.116 30.2371 17.3987C30.0638 18.0654 29.7838 18.448 29.4398 18.9214L29.4091 18.9627C27.3891 21.7347 22.7758 26.8334 15.9998 26.8334C9.22377 26.8334 4.61043 21.7347 2.59043 18.9627L2.55976 18.9214C2.21576 18.448 1.93576 18.064 1.76243 17.3987C1.69416 17.1041 1.66192 16.8024 1.66643 16.5C1.66643 16.22 1.6891 15.884 1.76243 15.6014C1.93576 14.9347 2.21576 14.552 2.55976 14.0787L2.59043 14.0374ZM12.3331 16.5C12.3331 17.4725 12.7194 18.4051 13.407 19.0927C14.0947 19.7804 15.0273 20.1667 15.9998 20.1667C16.9722 20.1667 17.9049 19.7804 18.5925 19.0927C19.2801 18.4051 19.6664 17.4725 19.6664 16.5C19.6664 15.5276 19.2801 14.5949 18.5925 13.9073C17.9049 13.2197 16.9722 12.8334 15.9998 12.8334C15.0273 12.8334 14.0947 13.2197 13.407 13.9073C12.7194 14.5949 12.3331 15.5276 12.3331 16.5ZM14.3331 16.5C14.3331 16.058 14.5087 15.6341 14.8213 15.3215C15.1338 15.0089 15.5577 14.8334 15.9998 14.8334C16.4418 14.8334 16.8657 15.0089 17.1783 15.3215C17.4908 15.6341 17.6664 16.058 17.6664 16.5C17.6664 16.942 17.4908 17.366 17.1783 17.6785C16.8657 17.9911 16.4418 18.1667 15.9998 18.1667C15.5577 18.1667 15.1338 17.9911 14.8213 17.6785C14.5087 17.366 14.3331 16.942 14.3331 16.5Z" fill="#3D7CFB"/>
</svg>
