<svg width="40" height="41" viewBox="0 0 40 41" fill="none" xmlns="http://www.w3.org/2000/svg">
<path d="M23.535 17.9666C23.2225 17.6541 22.7986 17.4786 22.3567 17.4786C21.9147 17.4786 21.4909 17.6541 21.1783 17.9666L20 19.1432C19.3713 19.7504 18.5293 20.0864 17.6553 20.0788C16.7814 20.0712 15.9453 19.7206 15.3273 19.1026C14.7093 18.4846 14.3587 17.6485 14.3511 16.7746C14.3435 15.9006 14.6795 15.0586 15.2867 14.4299L24.67 5.04322C26.8916 4.53793 29.2159 4.74588 31.3124 5.63751C33.409 6.52914 35.1711 8.05905 36.3482 10.0097C37.5252 11.9604 38.0574 14.2325 37.8689 16.5029C37.6804 18.7734 36.7809 20.9267 35.2984 22.6566L31.785 26.2149L23.535 17.9666ZM5.26835 7.94655C6.99248 6.22139 9.24833 5.12851 11.6708 4.8448C14.0933 4.56109 16.5406 5.10313 18.6167 6.38322L12.9283 12.0732C11.6963 13.3028 10.9941 14.9654 10.9716 16.7058C10.9491 18.4463 11.6082 20.1265 12.808 21.3874C14.0078 22.6484 15.6532 23.3901 17.3926 23.4541C19.132 23.5181 20.8275 22.8993 22.1167 21.7299L22.3567 21.5016L29.4283 28.5716L22.3567 35.6432C21.7316 36.2681 20.8839 36.6192 20 36.6192C19.1161 36.6192 18.2684 36.2681 17.6433 35.6432L5.26668 23.2666C3.23523 21.2349 2.09399 18.4796 2.09399 15.6066C2.09399 12.7335 3.2369 9.97817 5.26835 7.94655Z" fill="#6BAB37"/>
</svg>
