<svg width="48" height="49" viewBox="0 0 48 49" fill="none" xmlns="http://www.w3.org/2000/svg">
<path d="M17.3 40.5H12C10.9 40.5 9.95867 40.1087 9.176 39.326C8.39333 38.5433 8.00133 37.6013 8 36.5V31.2L4.15 27.3C3.78333 26.9 3.5 26.4587 3.3 25.976C3.1 25.4933 3 25.0013 3 24.5C3 23.9987 3.1 23.5073 3.3 23.026C3.5 22.5447 3.78333 22.1027 4.15 21.7L8 17.8V12.5C8 11.4 8.392 10.4587 9.176 9.676C9.96 8.89333 10.9013 8.50133 12 8.5H17.3L21.2 4.65C21.6 4.28333 22.042 4 22.526 3.8C23.01 3.6 23.5013 3.5 24 3.5C24.4987 3.5 24.9907 3.6 25.476 3.8C25.9613 4 26.4027 4.28333 26.8 4.65L30.7 8.5H36C37.1 8.5 38.042 8.892 38.826 9.676C39.61 10.46 40.0013 11.4013 40 12.5V17.8L43.85 21.7C44.2167 22.1 44.5 22.542 44.7 23.026C44.9 23.51 45 24.0013 45 24.5C45 24.9987 44.9 25.4907 44.7 25.976C44.5 26.4613 44.2167 26.9027 43.85 27.3L40 31.2V36.5C40 37.6 39.6087 38.542 38.826 39.326C38.0433 40.11 37.1013 40.5013 36 40.5H30.7L26.8 44.35C26.4 44.7167 25.9587 45 25.476 45.2C24.9933 45.4 24.5013 45.5 24 45.5C23.4987 45.5 23.0073 45.4 22.526 45.2C22.0447 45 21.6027 44.7167 21.2 44.35L17.3 40.5ZM26.05 23.5L29 21.35L31.9 23.5L30.75 20.1L33.7 17.95H30.1L29 14.5L27.9 17.95H24.25L27.2 20.1L26.05 23.5ZM24 34.5C26.7667 34.5 29.1253 33.5333 31.076 31.6C33.0267 29.6667 34.0013 27.3 34 24.5C34 24.2333 33.992 23.9667 33.976 23.7C33.96 23.4333 33.918 23.1667 33.85 22.9C33.4833 24.4667 32.6667 25.7587 31.4 26.776C30.1333 27.7933 28.65 28.3013 26.95 28.3C24.95 28.3 23.2667 27.6167 21.9 26.25C20.5333 24.8833 19.85 23.2 19.85 21.2C19.85 19.6667 20.2833 18.292 21.15 17.076C22.0167 15.86 23.15 15.0013 24.55 14.5H24C21.2 14.5 18.8333 15.4753 16.9 17.426C14.9667 19.3767 14 21.7347 14 24.5C14 27.3 14.9667 29.6667 16.9 31.6C18.8333 33.5333 21.2 34.5 24 34.5Z" fill="#EB7B59"/>
</svg>
