<svg width="40" height="41" viewBox="0 0 40 41" fill="none" xmlns="http://www.w3.org/2000/svg">
<path fill-rule="evenodd" clip-rule="evenodd" d="M20 2.24846L20.7714 1.04846C20.5412 0.900772 20.2735 0.822266 20 0.822266C19.7265 0.822266 19.4588 0.900772 19.2286 1.04846L20 2.24846ZM20 2.24846L19.2286 1.04846H19.2229L19.2171 1.05417L19.1943 1.06846L19.1257 1.11417L18.8771 1.2856C17.6451 2.17736 16.5128 3.19947 15.5 4.33417C13.6714 6.39417 11.7086 9.49131 11.7086 13.3227C11.7086 15.337 12.6457 17.2113 14.22 18.5542C15.7857 19.8942 17.8657 20.6142 20 20.6142C22.1343 20.6142 24.2143 19.8942 25.78 18.557C27.3543 17.2113 28.2943 15.337 28.2943 13.3227C28.2943 9.49131 26.3257 6.39417 24.5 4.33703C23.4191 3.12719 22.2025 2.04579 20.8743 1.11417L20.8057 1.07132L20.7829 1.05417L20.7771 1.04846H20.7714L20 2.24846ZM17.1429 40.1799C17.1429 34.4199 17.1429 29.1056 15.0029 24.437C14.7951 24.0088 14.4687 23.6492 14.0625 23.401C13.6563 23.1528 13.1873 23.0265 12.7114 23.037C11.9921 23.0378 11.3024 23.3241 10.794 23.833C10.2856 24.342 10 25.0319 10 25.7513V29.2313C9.99966 29.4444 9.93897 29.6531 9.82496 29.8332C9.71096 30.0133 9.54829 30.1574 9.35578 30.2489C9.16328 30.3403 8.9488 30.3754 8.73718 30.3501C8.52557 30.3247 8.32545 30.24 8.16 30.1056C7.64076 29.6825 7.22216 29.1493 6.93455 28.5444C6.64694 27.9395 6.49753 27.2782 6.49714 26.6085V16.2856C6.49714 15.424 6.15488 14.5977 5.54566 13.9885C4.93643 13.3793 4.11015 13.037 3.24857 13.037C2.387 13.037 1.56071 13.3793 0.951485 13.9885C0.342259 14.5977 0 15.424 0 16.2856L0 29.7827C0 31.2542 0.502857 32.6856 1.42 33.837L6.48857 40.1799H17.1429ZM24.9971 24.437C22.8571 29.1056 22.8571 34.4199 22.8571 40.1799H33.5143L38.58 33.837C39.4971 32.6856 40 31.257 40 29.7799V16.2885C40 15.4269 39.6577 14.6006 39.0485 13.9914C38.4393 13.3821 37.613 13.0399 36.7514 13.0399C35.8899 13.0399 35.0636 13.3821 34.4543 13.9914C33.8451 14.6006 33.5029 15.4269 33.5029 16.2885V26.6113C33.5029 27.9685 32.8914 29.2513 31.84 30.1085C31.6745 30.2428 31.4744 30.3276 31.2628 30.3529C31.0512 30.3783 30.8367 30.3432 30.6442 30.2517C30.4517 30.1602 30.289 30.0161 30.175 29.8361C30.061 29.656 30.0003 29.4473 30 29.2342V25.7485C30 25.0286 29.714 24.3382 29.205 23.8292C28.696 23.3201 28.0056 23.0342 27.2857 23.0342C26.8103 23.0242 26.342 23.1508 25.9363 23.3989C25.5307 23.6471 25.2047 24.0064 24.9971 24.4342" fill="#51A4B7"/>
</svg>
