<svg width="41" height="41" viewBox="0 0 41 41" fill="none" xmlns="http://www.w3.org/2000/svg">
<path fill-rule="evenodd" clip-rule="evenodd" d="M29.1467 2.29582C31.2837 1.86552 33.4641 1.6893 35.6425 1.77082C36.1457 1.79037 36.623 1.99902 36.9791 2.3551C37.3351 2.71117 37.5438 3.18846 37.5633 3.69165C37.6133 4.87165 37.6192 7.35749 37.0383 10.1875C36.6967 11.8567 34.6892 12.3092 33.5825 11.2017L31.985 9.60499C31.3629 10.1678 30.7481 10.7387 30.1408 11.3175C28.565 12.8183 26.5883 14.8025 24.9208 16.7833C23.5025 18.4683 20.7817 18.4567 19.45 16.5917C18.6079 15.4092 17.7331 14.2505 16.8267 13.1167C14.965 14.3908 11.1 17.3233 6.755 22.2917C6.485 22.6 6.21389 22.9161 5.94167 23.24C5.65689 23.5781 5.24945 23.7893 4.80897 23.8271C4.3685 23.8648 3.93107 23.726 3.59292 23.4412C3.25477 23.1565 3.04359 22.749 3.00585 22.3085C2.96811 21.8681 3.10689 21.4306 3.39167 21.0925C3.67833 20.7536 3.96278 20.4222 4.245 20.0983C8.90333 14.7717 13.0675 11.6383 15.0725 10.2783C16.475 9.32749 18.315 9.65499 19.3442 10.9283C20.319 12.1429 21.2586 13.3853 22.1617 14.6542C22.1677 14.6618 22.1751 14.6682 22.1833 14.6733C22.2026 14.6815 22.2232 14.6861 22.2442 14.6867C22.2677 14.6883 22.2912 14.6846 22.3132 14.676C22.3351 14.6673 22.3548 14.6539 22.3708 14.6367C24.1508 12.5225 26.2258 10.4433 27.8408 8.90415C28.535 8.24332 29.1492 7.67665 29.625 7.24582L28.1333 5.75082C27.0258 4.64415 27.4783 2.63748 29.1475 2.29498M28.6375 36.1033C28.5275 34.595 28.4175 31.9042 28.4175 27.1658C28.4175 22.4275 28.5275 19.7375 28.6375 18.2275C28.7592 16.5525 29.9825 15.2458 31.7225 15.1392C32.2758 15.1058 32.97 15.0825 33.8342 15.0825C34.6983 15.0825 35.3925 15.1058 35.9458 15.1392C37.6858 15.2458 38.9092 16.5525 39.0308 18.2275C39.1408 19.7375 39.2508 22.4275 39.2508 27.1658C39.2508 31.9042 39.1408 34.5942 39.0308 36.1041C38.9092 37.7792 37.6858 39.0858 35.9458 39.1925C35.3925 39.2258 34.6983 39.2492 33.8342 39.2492C32.97 39.2492 32.2758 39.2258 31.7225 39.1925C29.9825 39.0858 28.7592 37.7783 28.6375 36.1033ZM1.89167 36.5583C1.81083 35.7717 1.75 34.6383 1.75 33C1.75 31.3617 1.81083 30.2283 1.89083 29.4417C2.05833 27.7833 3.38917 26.8325 4.84667 26.7833C5.61976 26.7594 6.3932 26.7483 7.16667 26.75C8.15583 26.75 8.91417 26.7642 9.48667 26.7833C10.9442 26.8325 12.275 27.7833 12.4425 29.4417C12.5225 30.2283 12.5833 31.3617 12.5833 33C12.5833 34.6383 12.5225 35.7717 12.4433 36.5583C12.275 38.2167 10.9433 39.1675 9.48667 39.2167C8.91417 39.2358 8.15583 39.25 7.16667 39.25C6.1775 39.25 5.41917 39.2358 4.84667 39.2167C3.38917 39.1675 2.05917 38.2167 1.89167 36.5583ZM15.0833 30.5C15.0833 33.3425 15.1658 35.1367 15.2608 36.2642C15.4042 37.9708 16.7108 39.1367 18.3608 39.2092C18.9142 39.2333 19.6158 39.25 20.5 39.25C21.3842 39.25 22.0858 39.2333 22.6392 39.2083C24.2892 39.1367 25.5958 37.9708 25.7392 36.2642C25.8342 35.1367 25.9167 33.3425 25.9167 30.5C25.9167 27.6575 25.8342 25.8633 25.74 24.7358C25.5958 23.0292 24.29 21.8633 22.6392 21.7908C22.0858 21.7667 21.3842 21.75 20.5 21.75C19.6158 21.75 18.9142 21.7667 18.3617 21.7917C16.7108 21.8633 15.4033 23.0292 15.26 24.7358C15.1667 25.8633 15.0833 27.6575 15.0833 30.5Z" fill="#900BA4"/>
</svg>
