<svg width="41" height="40" viewBox="0 0 41 40" fill="none" xmlns="http://www.w3.org/2000/svg">
<path d="M20.5455 0H20.4545C9.43391 0 0.5 8.93392 0.5 19.9545V20.0455C0.5 31.0661 9.43391 40 20.4545 40H20.5455C31.5661 40 40.5 31.0661 40.5 20.0455V19.9545C40.5 8.93392 31.5661 0 20.5455 0Z" fill="#FF0000"/>
<path fill-rule="evenodd" clip-rule="evenodd" d="M18.6744 25.4684C18.6506 25.5511 18.6282 25.6212 18.61 25.6912C17.5519 29.8366 17.4342 30.7573 16.3467 32.6828C15.8282 33.5979 15.2438 34.4654 14.5978 35.295C14.5249 35.3889 14.4562 35.5094 14.3105 35.48C14.1507 35.4464 14.1381 35.302 14.1213 35.1745C13.9475 33.9146 13.8508 32.652 13.8929 31.3795C13.9475 29.7231 14.1521 29.1541 16.2879 20.174C16.3187 20.0366 16.2837 19.9231 16.2388 19.7998C15.7273 18.4208 15.6264 17.0208 16.0734 15.6026C17.0404 12.5392 20.5131 12.3051 21.1199 14.8318C21.494 16.3944 20.5047 18.4404 19.7451 21.4646C19.1159 23.9591 22.0532 25.7333 24.5631 23.9115C26.8782 22.2326 27.7765 18.2078 27.6055 15.3546C27.2692 9.6663 21.0316 8.43728 17.0754 10.2689C12.5391 12.3668 11.5077 17.9892 13.5565 20.5593C13.8158 20.8859 14.3049 21.0863 14.2194 21.417C14.0877 21.9313 13.9713 22.4498 13.8284 22.9613C13.7219 23.3425 13.1151 23.4812 12.7297 23.3243C11.9744 23.0188 11.3451 22.5381 10.835 21.9047C9.0959 19.7507 8.59841 15.4905 10.8981 11.8833C13.4458 7.88793 18.1853 6.27072 22.5128 6.76121C27.6812 7.3484 30.9478 10.8799 31.5588 14.8865C31.8377 16.7111 31.6373 21.211 29.0756 24.3922C26.1284 28.047 21.3511 28.2894 19.1467 26.0458C18.9771 25.8734 18.8412 25.673 18.6744 25.467V25.4684Z" fill="white"/>
</svg>
