<svg width="64" height="64" viewBox="0 0 64 64" fill="none" xmlns="http://www.w3.org/2000/svg">
<path d="M46.6667 8C50.5565 8 54.287 9.54523 57.0376 12.2958C59.7881 15.0463 61.3333 18.7768 61.3333 22.6667C61.3333 28.6507 58.2187 34.4373 53.5707 35.5547C51.776 35.9867 50.3493 38.288 50.656 40.9147C51.0667 44.4293 54.2453 47.9813 60.5413 50.7813C61.944 51.4053 61.3573 53.5147 59.8347 53.3227C43.4267 51.2693 32.0533 40.5733 32 25.44C32 15.032 38.1493 8 46.6667 8ZM14.6667 8C18.5565 8 22.287 9.54523 25.0376 12.2958C27.7881 15.0463 29.3333 18.7768 29.3333 22.6667C29.3333 28.6507 26.2187 34.4373 21.5707 35.5547C19.776 35.9867 18.3493 38.288 18.656 40.9147C19.0667 44.4293 22.2453 47.9813 28.5413 50.7813C29.944 51.4053 29.3573 53.5147 27.8347 53.3227C11.4267 51.2693 0.0533333 40.5733 0 25.44C0 15.032 6.14933 8 14.6667 8Z" fill="#C8882F"/>
</svg>
