<svg width="32" height="32" viewBox="0 0 32 32" fill="none" xmlns="http://www.w3.org/2000/svg">
<rect width="32" height="32" rx="16" fill="#FF9600"/>
<path d="M24.0869 22.9075L20.9953 19.8409C22.1954 18.3445 22.7765 16.4453 22.6193 14.5336C22.462 12.6219 21.5783 10.8432 20.1499 9.56306C18.7214 8.28294 16.8568 7.59878 14.9394 7.65125C13.022 7.70371 11.1975 8.48882 9.84123 9.84514C8.48492 11.2015 7.69981 13.0259 7.64734 14.9433C7.59487 16.8607 8.27904 18.7253 9.55915 20.1538C10.8393 21.5822 12.618 22.466 14.5297 22.6232C16.4414 22.7804 18.3406 22.1993 19.8369 20.9992L22.9036 24.0659C22.9811 24.144 23.0733 24.206 23.1748 24.2483C23.2764 24.2906 23.3853 24.3124 23.4953 24.3124C23.6053 24.3124 23.7142 24.2906 23.8158 24.2483C23.9173 24.206 24.0095 24.144 24.0869 24.0659C24.2371 23.9105 24.3211 23.7028 24.3211 23.4867C24.3211 23.2706 24.2371 23.0629 24.0869 22.9075ZM15.1619 20.9992C14.0082 20.9992 12.8804 20.6571 11.9211 20.0161C10.9618 19.3751 10.2142 18.4641 9.77265 17.3982C9.33114 16.3323 9.21562 15.1594 9.4407 14.0278C9.66578 12.8963 10.2214 11.8569 11.0372 11.0411C11.853 10.2253 12.8924 9.66969 14.0239 9.44461C15.1555 9.21953 16.3284 9.33505 17.3943 9.77656C18.4602 10.2181 19.3712 10.9657 20.0122 11.925C20.6532 12.8843 20.9953 14.0121 20.9953 15.1659C20.9953 16.713 20.3807 18.1967 19.2867 19.2906C18.1928 20.3846 16.709 20.9992 15.1619 20.9992Z" fill="white"/>
</svg>
