<svg width="1280" height="394" viewBox="0 0 1280 394" fill="none" xmlns="http://www.w3.org/2000/svg">
<g clip-path="url(#clip0_260_152)">
<rect width="1280" height="394" rx="10" fill="#F2F6F4"/>
<path d="M21.1498 294.888L19.9614 291L18.773 294.888L16 297.861L19.9614 296.946L23.9227 297.861L21.1498 294.888Z" fill="#7EB751"/>
<path d="M39.4465 294.888L38.2581 291L37.0697 294.888L34.2968 297.861L38.2581 296.946L42.2195 297.861L39.4465 294.888Z" fill="#7EB751"/>
<path d="M56.5549 291L57.7433 294.888L60.5162 297.861L56.5549 296.946L52.5935 297.861L55.3665 294.888L56.5549 291Z" fill="#7EB751"/>
<path d="M76.04 294.888L74.8516 291L73.6632 294.888L70.8903 297.861L74.8516 296.946L78.813 297.861L76.04 294.888Z" fill="#7EB751"/>
<path d="M93.1484 291L94.3368 294.888L97.1097 297.861L93.1484 296.946L89.187 297.861L91.96 294.888L93.1484 291Z" fill="#7EB751"/>
<path d="M112.634 294.888L111.445 291L110.257 294.888L107.484 297.861L111.445 296.946L115.406 297.861L112.634 294.888Z" fill="#7EB751"/>
<path d="M129.742 291L130.93 294.888L133.703 297.861L129.742 296.946L125.781 297.861L128.553 294.888L129.742 291Z" fill="#7EB751"/>
<path d="M149.227 294.888L148.039 291L146.85 294.888L144.077 297.861L148.039 296.946L152 297.861L149.227 294.888Z" fill="#7EB751"/>
<path d="M19.9614 304.723L21.1498 308.611L23.9227 311.584L19.9614 310.669L16 311.584L18.773 308.611L19.9614 304.723Z" fill="#7EB751"/>
<path d="M39.4465 308.611L38.2581 304.723L37.0697 308.611L34.2968 311.584L38.2581 310.669L42.2195 311.584L39.4465 308.611Z" fill="#7EB751"/>
<path d="M56.5549 304.723L57.7433 308.611L60.5162 311.584L56.5549 310.669L52.5935 311.584L55.3665 308.611L56.5549 304.723Z" fill="#7EB751"/>
<path d="M76.04 308.611L74.8516 304.723L73.6632 308.611L70.8903 311.584L74.8516 310.669L78.813 311.584L76.04 308.611Z" fill="#7EB751"/>
<path d="M93.1484 304.723L94.3368 308.611L97.1097 311.584L93.1484 310.669L89.187 311.584L91.96 308.611L93.1484 304.723Z" fill="#7EB751"/>
<path d="M112.634 308.611L111.445 304.723L110.257 308.611L107.484 311.584L111.445 310.669L115.406 311.584L112.634 308.611Z" fill="#7EB751"/>
<path d="M129.742 304.723L130.93 308.611L133.703 311.584L129.742 310.669L125.781 311.584L128.553 308.611L129.742 304.723Z" fill="#7EB751"/>
<path d="M149.227 308.611L148.039 304.723L146.85 308.611L144.077 311.584L148.039 310.669L152 311.584L149.227 308.611Z" fill="#7EB751"/>
<path d="M19.9614 318.445L21.1498 322.333L23.9227 325.306L19.9614 324.392L16 325.306L18.773 322.333L19.9614 318.445Z" fill="#7EB751"/>
<path d="M39.4465 322.333L38.2581 318.445L37.0697 322.333L34.2968 325.306L38.2581 324.392L42.2195 325.306L39.4465 322.333Z" fill="#7EB751"/>
<path d="M56.5549 318.445L57.7433 322.333L60.5162 325.306L56.5549 324.392L52.5935 325.306L55.3665 322.333L56.5549 318.445Z" fill="#7EB751"/>
<path d="M76.04 322.333L74.8516 318.445L73.6632 322.333L70.8903 325.306L74.8516 324.392L78.813 325.306L76.04 322.333Z" fill="#7EB751"/>
<path d="M93.1484 318.445L94.3368 322.333L97.1097 325.306L93.1484 324.392L89.187 325.306L91.96 322.333L93.1484 318.445Z" fill="#7EB751"/>
<path d="M112.634 322.333L111.445 318.445L110.257 322.333L107.484 325.306L111.445 324.392L115.406 325.306L112.634 322.333Z" fill="#7EB751"/>
<path d="M129.742 318.445L130.93 322.333L133.703 325.306L129.742 324.392L125.781 325.306L128.553 322.333L129.742 318.445Z" fill="#7EB751"/>
<path d="M149.227 322.333L148.039 318.445L146.85 322.333L144.077 325.306L148.039 324.392L152 325.306L149.227 322.333Z" fill="#7EB751"/>
<path d="M19.9614 332.168L21.1498 336.056L23.9227 339.029L19.9614 338.114L16 339.029L18.773 336.056L19.9614 332.168Z" fill="#7EB751"/>
<path d="M39.4465 336.056L38.2581 332.168L37.0697 336.056L34.2968 339.029L38.2581 338.114L42.2195 339.029L39.4465 336.056Z" fill="#7EB751"/>
<path d="M56.5549 332.168L57.7433 336.056L60.5162 339.029L56.5549 338.114L52.5935 339.029L55.3665 336.056L56.5549 332.168Z" fill="#7EB751"/>
<path d="M76.04 336.056L74.8516 332.168L73.6632 336.056L70.8903 339.029L74.8516 338.114L78.813 339.029L76.04 336.056Z" fill="#7EB751"/>
<path d="M93.1484 332.168L94.3368 336.056L97.1097 339.029L93.1484 338.114L89.187 339.029L91.96 336.056L93.1484 332.168Z" fill="#7EB751"/>
<path d="M112.634 336.056L111.445 332.168L110.257 336.056L107.484 339.029L111.445 338.114L115.406 339.029L112.634 336.056Z" fill="#7EB751"/>
<path d="M129.742 332.168L130.93 336.056L133.703 339.029L129.742 338.114L125.781 339.029L128.553 336.056L129.742 332.168Z" fill="#7EB751"/>
<path d="M149.227 336.056L148.039 332.168L146.85 336.056L144.077 339.029L148.039 338.114L152 339.029L149.227 336.056Z" fill="#7EB751"/>
<path d="M19.9614 345.89L21.1498 349.778L23.9227 352.752L19.9614 351.837L16 352.752L18.773 349.778L19.9614 345.89Z" fill="#7EB751"/>
<path d="M39.4465 349.778L38.2581 345.89L37.0697 349.778L34.2968 352.752L38.2581 351.837L42.2195 352.752L39.4465 349.778Z" fill="#7EB751"/>
<path d="M56.5549 345.89L57.7433 349.778L60.5162 352.752L56.5549 351.837L52.5935 352.752L55.3665 349.778L56.5549 345.89Z" fill="#7EB751"/>
<path d="M76.04 349.778L74.8516 345.89L73.6632 349.778L70.8903 352.752L74.8516 351.837L78.813 352.752L76.04 349.778Z" fill="#7EB751"/>
<path d="M93.1484 345.89L94.3368 349.778L97.1097 352.752L93.1484 351.837L89.187 352.752L91.96 349.778L93.1484 345.89Z" fill="#7EB751"/>
<path d="M112.634 349.778L111.445 345.89L110.257 349.778L107.484 352.752L111.445 351.837L115.406 352.752L112.634 349.778Z" fill="#7EB751"/>
<path d="M129.742 345.89L130.93 349.778L133.703 352.752L129.742 351.837L125.781 352.752L128.553 349.778L129.742 345.89Z" fill="#7EB751"/>
<path d="M149.227 349.778L148.039 345.89L146.85 349.778L144.077 352.752L148.039 351.837L152 352.752L149.227 349.778Z" fill="#7EB751"/>
<path d="M19.9614 359.613L21.1498 363.501L23.9227 366.474L19.9614 365.559L16 366.474L18.773 363.501L19.9614 359.613Z" fill="#7EB751"/>
<path d="M39.4465 363.501L38.2581 359.613L37.0697 363.501L34.2968 366.474L38.2581 365.559L42.2195 366.474L39.4465 363.501Z" fill="#7EB751"/>
<path d="M56.5549 359.613L57.7433 363.501L60.5162 366.474L56.5549 365.559L52.5935 366.474L55.3665 363.501L56.5549 359.613Z" fill="#7EB751"/>
<path d="M76.04 363.501L74.8516 359.613L73.6632 363.501L70.8903 366.474L74.8516 365.559L78.813 366.474L76.04 363.501Z" fill="#7EB751"/>
<path d="M93.1484 359.613L94.3368 363.501L97.1097 366.474L93.1484 365.559L89.187 366.474L91.96 363.501L93.1484 359.613Z" fill="#7EB751"/>
<path d="M112.634 363.501L111.445 359.613L110.257 363.501L107.484 366.474L111.445 365.559L115.406 366.474L112.634 363.501Z" fill="#7EB751"/>
<path d="M129.742 359.613L130.93 363.501L133.703 366.474L129.742 365.559L125.781 366.474L128.553 363.501L129.742 359.613Z" fill="#7EB751"/>
<path d="M149.227 363.501L148.039 359.613L146.85 363.501L144.077 366.474L148.039 365.559L152 366.474L149.227 363.501Z" fill="#7EB751"/>
<path d="M19.9614 373.335L21.1498 377.223L23.9227 380.197L19.9614 379.282L16 380.197L18.773 377.223L19.9614 373.335Z" fill="#7EB751"/>
<path d="M39.4465 377.223L38.2581 373.335L37.0697 377.223L34.2968 380.197L38.2581 379.282L42.2195 380.197L39.4465 377.223Z" fill="#7EB751"/>
<path d="M56.5549 373.335L57.7433 377.223L60.5162 380.197L56.5549 379.282L52.5935 380.197L55.3665 377.223L56.5549 373.335Z" fill="#7EB751"/>
<path d="M76.04 377.223L74.8516 373.335L73.6632 377.223L70.8903 380.197L74.8516 379.282L78.813 380.197L76.04 377.223Z" fill="#7EB751"/>
<path d="M93.1484 373.335L94.3368 377.223L97.1097 380.197L93.1484 379.282L89.187 380.197L91.96 377.223L93.1484 373.335Z" fill="#7EB751"/>
<path d="M112.634 377.223L111.445 373.335L110.257 377.223L107.484 380.197L111.445 379.282L115.406 380.197L112.634 377.223Z" fill="#7EB751"/>
<path d="M129.742 373.335L130.93 377.223L133.703 380.197L129.742 379.282L125.781 380.197L128.553 377.223L129.742 373.335Z" fill="#7EB751"/>
<path d="M149.227 377.223L148.039 373.335L146.85 377.223L144.077 380.197L148.039 379.282L152 380.197L149.227 377.223Z" fill="#7EB751"/>
<path d="M19.9614 387.058L21.1498 390.946L23.9227 393.919L19.9614 393.004L16 393.919L18.773 390.946L19.9614 387.058Z" fill="#7EB751"/>
<path d="M39.4465 390.946L38.2581 387.058L37.0697 390.946L34.2968 393.919L38.2581 393.004L42.2195 393.919L39.4465 390.946Z" fill="#7EB751"/>
<path d="M56.5549 387.058L57.7433 390.946L60.5162 393.919L56.5549 393.004L52.5935 393.919L55.3665 390.946L56.5549 387.058Z" fill="#7EB751"/>
<path d="M76.04 390.946L74.8516 387.058L73.6632 390.946L70.8903 393.919L74.8516 393.004L78.813 393.919L76.04 390.946Z" fill="#7EB751"/>
<path d="M93.1484 387.058L94.3368 390.946L97.1097 393.919L93.1484 393.004L89.187 393.919L91.96 390.946L93.1484 387.058Z" fill="#7EB751"/>
<path d="M112.634 390.946L111.445 387.058L110.257 390.946L107.484 393.919L111.445 393.004L115.406 393.919L112.634 390.946Z" fill="#7EB751"/>
<path d="M129.742 387.058L130.93 390.946L133.703 393.919L129.742 393.004L125.781 393.919L128.553 390.946L129.742 387.058Z" fill="#7EB751"/>
<path d="M149.227 390.946L148.039 387.058L146.85 390.946L144.077 393.919L148.039 393.004L152 393.919L149.227 390.946Z" fill="#7EB751"/>
<rect x="559" y="242" width="10" height="10" rx="5" fill="#B5B5B5"/>
<rect x="585" y="242" width="10" height="10" rx="5" fill="#B5B5B5"/>
<rect x="611" y="242" width="10" height="10" rx="5" fill="#FF9600"/>
<path d="M807.005 246.028L1191.25 221.591C1254.53 217.567 1308.06 267.813 1308.04 331.217C1308.02 391.864 1258.84 441.013 1198.19 440.993L960.839 440.917L960.869 346.166L878.567 302.101L806.992 286.064L909.891 278.09L807.005 246.028Z" fill="#7EB751" fill-opacity="0.1"/>
</g>
<defs>
<clipPath id="clip0_260_152">
<rect width="1280" height="394" rx="10" fill="white"/>
</clipPath>
</defs>
</svg>
