<svg width="20" height="20" viewBox="0 0 20 20" fill="none" xmlns="http://www.w3.org/2000/svg">
<path d="M3.52229 2.83381L3.52229 17.8338C3.52277 17.9857 3.56465 18.1345 3.64344 18.2644C3.72223 18.3942 3.83493 18.5001 3.96942 18.5706C4.10391 18.6412 4.25509 18.6737 4.40669 18.6647C4.5583 18.6557 4.70458 18.6056 4.82979 18.5196L15.6631 11.0196C16.1123 10.7088 16.1123 9.96048 15.6631 9.64881L4.82979 2.14881C4.70484 2.062 4.55848 2.01109 4.40663 2.00162C4.25477 1.99214 4.10323 2.02446 3.96845 2.09507C3.83368 2.16568 3.72083 2.27187 3.64217 2.40211C3.56351 2.53236 3.52205 2.68166 3.52229 2.83381Z" fill="#7EB751"/>
</svg>
