<svg width="41" height="40" viewBox="0 0 41 40" fill="none" xmlns="http://www.w3.org/2000/svg">
<path d="M40.4972 20.0007C40.4972 30.102 33.0098 38.4529 23.2831 39.808C22.3736 39.9341 21.4431 40 20.4986 40C19.4083 40 18.3377 39.9131 17.2951 39.7449C7.77298 38.2118 0.5 29.9548 0.5 20.0007C0.5 8.95491 9.45459 0 20.5 0C31.5454 0 40.5 8.95491 40.5 20.0007H40.4972Z" fill="#1C1C1B"/>
<path d="M8.61215 8.8208L17.8358 21.1526L8.55469 31.1793H10.6441L18.7705 22.4012L25.3358 31.1793H32.4448L22.7027 18.1538L31.342 8.8208H29.2526L21.7694 16.9052L15.7226 8.8208H8.61353H8.61215ZM11.6839 10.3595H14.949L29.3703 29.6406H26.1051L11.6839 10.3595Z" fill="white"/>
</svg>
