<svg width="356" height="242" viewBox="0 0 356 242" fill="none" xmlns="http://www.w3.org/2000/svg">
<path d="M80.2219 131.297C80.0695 131.084 79.9172 130.871 79.7587 130.688C77.9872 128.335 76.108 126.068 74.1212 123.886C74.176 119.504 74.0663 102.921 69.6233 103.774C65.5216 104.566 70.8788 117.694 73.1643 122.868C72.2989 121.942 71.4151 121.038 70.5131 120.156C67.5146 116.268 57.434 103.737 54.4842 107.126C51.7477 110.271 63.7237 117.206 68.9895 120.034C69.9646 120.967 70.9215 121.918 71.86 122.899C66.7832 120.363 54.1368 114.506 53.0093 118.511C51.7904 122.85 68.3312 123.764 72.823 123.935C75.1581 126.454 77.3534 129.099 79.3991 131.858C74.8525 128.981 62.2793 121.467 60.7312 125.434C59.0735 129.7 75.8825 132.224 80.0878 132.79C82.2883 135.848 84.3228 139.022 86.1824 142.298C81.837 138.641 70.9885 129.969 68.9468 133.577C66.7345 137.495 82.544 142.316 86.8894 143.554C87.1881 144.096 87.4989 144.645 87.7792 145.193C89.2582 147.98 90.6275 150.824 91.887 153.726C87.9499 149.868 77.4366 140.122 75.1146 143.639C72.6219 147.411 88.212 153.36 92.3746 154.865C94.2343 159.288 95.8139 163.823 97.104 168.444C93.7459 164.068 84.7136 152.964 81.9223 156.115C78.9298 159.503 93.5021 167.579 97.4393 169.657C97.4941 169.852 97.555 170.047 97.6038 170.266C98.0182 171.845 98.4205 173.442 98.7008 175.057C98.7329 175.172 98.8063 175.272 98.9071 175.336C99.0079 175.401 99.129 175.427 99.2473 175.408C99.3656 175.389 99.4728 175.327 99.5485 175.234C99.6242 175.142 99.6631 175.024 99.6577 174.904C99.3834 173.302 99.0482 171.711 98.6155 170.12C100.608 166.11 107.648 151.282 103.296 150.117C99.3408 149.063 98.4205 162.648 98.1767 168.505C97.4332 165.86 96.5677 163.251 95.6535 160.698C94.9994 158.869 94.3046 157.055 93.5692 155.255C94.9404 151.135 99.932 135.247 95.3975 134.704C91.2898 134.204 92.3502 148.064 92.9231 153.793C91.4848 150.412 89.89 147.105 88.1388 143.87C89.2176 139.665 93.0877 123.466 88.5594 123.234C84.3784 123.027 86.4689 137.081 87.4562 142.633C85.546 139.218 83.4503 135.91 81.1787 132.723C81.6724 128.152 83.1108 112.002 78.6495 112.416C74.6514 112.745 78.3935 125.666 80.2219 131.297Z" fill="#EB725F"/>
<path d="M290.403 104.577C290.513 104.34 290.629 104.108 290.738 103.87C291.957 101.189 293.05 98.4542 294.017 95.6669C297.894 93.6191 312.411 85.6046 309.534 82.1063C306.883 78.8822 297.912 89.8587 294.456 94.3382C294.862 93.1193 295.234 91.9004 295.572 90.6815C297.558 86.1897 303.751 71.3493 299.356 70.3741C295.291 69.4721 294.919 83.3069 294.944 89.2675C294.594 90.5718 294.214 91.8679 293.804 93.1559C293.609 87.4879 292.707 73.5799 288.654 74.5063C284.266 75.5058 291.36 90.4742 293.359 94.5028C292.259 97.7757 290.981 100.986 289.532 104.12C289.891 98.7508 290.482 84.1114 286.259 84.6478C281.731 85.2268 287.527 101.207 289.038 105.168C287.411 108.569 285.6 111.88 283.614 115.084C284.772 109.508 287.185 95.8436 283.041 95.7766C278.537 95.7095 281.859 111.897 282.846 116.303C282.511 116.834 282.175 117.358 281.834 117.876C280.091 120.501 278.244 123.062 276.294 125.561C277.8 120.259 281.341 106.369 277.141 106.003C272.637 105.619 274.856 122.154 275.526 126.53C272.53 130.28 269.3 133.836 265.854 137.177C268.097 132.131 273.539 118.894 269.432 117.949C265.025 116.937 264.909 133.624 264.952 138.061C264.806 138.195 264.666 138.342 264.519 138.482C263.3 139.597 262.081 140.712 260.832 141.73C260.338 142.12 260.93 142.894 261.442 142.504C262.715 141.486 263.934 140.408 265.153 139.317C269.633 139.152 286.027 138.25 284.967 133.874C284.004 129.888 271.62 135.556 266.372 138.14C268.335 136.227 270.212 134.215 272.022 132.198C273.318 130.748 274.58 129.269 275.807 127.761C280.073 126.999 296.425 123.794 294.749 119.576C293.225 115.73 281.542 123.233 276.8 126.524C279.079 123.647 281.223 120.665 283.23 117.577C287.435 116.517 303.519 112.177 301.556 108.088C299.728 104.321 288.392 112.866 283.986 116.389C286.077 113.08 287.984 109.657 289.696 106.137C293.963 104.388 308.815 97.9341 306.329 94.2163C304.037 90.8277 294.474 100.311 290.403 104.577Z" fill="#EB725F"/>
<path d="M112.547 117.304C113.664 114.777 114.482 112.128 114.985 109.411C114.851 108.002 114.648 106.634 114.376 105.31C114.156 104.152 113.882 103.036 113.577 101.933C112.811 103.341 111.814 104.61 110.627 105.688C111.543 103.612 112.255 101.453 112.754 99.2395C111.89 96.7465 110.801 94.3373 109.5 92.0417C109.132 93.3826 108.561 94.659 107.806 95.8265C108.116 93.898 108.269 91.9473 108.263 89.994C108.013 89.6039 107.775 89.2199 107.513 88.8421C106.075 86.7453 104.458 84.7775 102.68 82.9607C102.576 84.488 102.239 85.9904 101.68 87.4159C101.639 85.3916 101.435 83.3739 101.071 81.3822C99.2068 79.6689 97.1937 78.1249 95.0556 76.7686C95.1506 78.2239 95.0357 79.6854 94.7143 81.108C94.4076 79.2949 93.9697 77.5065 93.404 75.7569C91.3451 74.5759 89.1973 73.557 86.9802 72.7096C87.2574 73.8935 87.3823 75.1081 87.352 76.3237C86.8072 74.8971 86.1763 73.505 85.4626 72.1549C83.7023 71.5451 81.9073 71.0404 80.0872 70.6435C77.986 70.1594 75.847 69.8576 73.6939 69.7415C73.0297 71.7918 72.5464 73.8964 72.2495 76.0311C71.9666 77.874 71.7936 79.7321 71.7314 81.5955C72.7346 82.7449 73.8072 83.8318 74.9433 84.8501C73.7994 84.443 72.7119 83.8921 71.707 83.2106C71.7064 85.5842 71.8918 87.9541 72.2616 90.2987C73.6942 91.4535 75.2075 92.5045 76.79 93.4435C75.3472 93.2389 73.9413 92.8284 72.6151 92.2246C73.115 94.7073 73.835 97.1405 74.7665 99.4955C76.4926 100.556 78.3003 101.477 80.1725 102.25C78.6228 102.249 77.0827 102.006 75.6076 101.531C76.6699 103.852 77.9343 106.075 79.3863 108.174C79.6483 108.552 79.9226 108.918 80.1969 109.283C82.0181 109.99 83.8931 110.548 85.8039 110.953C84.4435 111.235 83.0483 111.309 81.6657 111.173C83.3392 113.211 85.1978 115.09 87.2179 116.786C89.4629 117.116 91.7348 117.227 94.0012 117.115C92.5684 117.835 91.0256 118.311 89.4363 118.523C90.3566 119.199 91.3074 119.858 92.3069 120.479C93.4527 121.199 94.6595 121.869 95.9271 122.503C98.6385 123.01 101.4 123.2 104.155 123.07C102.912 123.712 101.575 124.152 100.193 124.374C100.596 124.526 100.998 124.679 101.412 124.819C103.208 125.443 105.04 125.96 106.897 126.367C108.99 126.854 111.121 127.162 113.266 127.287C113.925 125.24 114.402 123.14 114.693 121.01C114.974 119.138 115.145 117.251 115.204 115.36C115.204 114.927 115.204 114.5 115.204 114.074C114.49 115.28 113.593 116.37 112.547 117.304Z" fill="#6E7FDD"/>
<mask id="mask0_3_79345" style="mask-type:luminance" maskUnits="userSpaceOnUse" x="71" y="69" width="45" height="59">
<path d="M112.547 117.302C113.664 114.775 114.482 112.127 114.985 109.41C114.851 108 114.648 106.633 114.376 105.308C114.156 104.15 113.882 103.035 113.577 101.932C112.811 103.339 111.814 104.608 110.627 105.686C111.543 103.61 112.255 101.451 112.754 99.2379C111.89 96.7449 110.801 94.3357 109.5 92.0402C109.132 93.381 108.561 94.6574 107.806 95.8249C108.116 93.8964 108.269 91.9457 108.263 89.9924C108.013 89.6023 107.775 89.2183 107.513 88.8405C106.075 86.7437 104.458 84.7759 102.68 82.9591C102.576 84.4864 102.239 85.9888 101.68 87.4143C101.639 85.39 101.435 83.3723 101.071 81.3806C99.2068 79.6673 97.1937 78.1233 95.0556 76.767C95.1506 78.2223 95.0357 79.6838 94.7143 81.1064C94.4076 79.2933 93.9697 77.5049 93.404 75.7553C91.3451 74.5743 89.1973 73.5554 86.9802 72.708C87.2574 73.892 87.3823 75.1065 87.352 76.3221C86.8072 74.8955 86.1763 73.5034 85.4626 72.1534C83.7023 71.5435 81.9073 71.0388 80.0872 70.6419C77.986 70.1578 75.847 69.856 73.6939 69.7399C73.0297 71.7902 72.5464 73.8948 72.2495 76.0295C71.9666 77.8724 71.7936 79.7305 71.7314 81.5939C72.7346 82.7434 73.8072 83.8303 74.9433 84.8485C73.7994 84.4414 72.7119 83.8905 71.707 83.209C71.7064 85.5826 71.8918 87.9525 72.2616 90.2971C73.6942 91.4519 75.2075 92.5029 76.79 93.4419C75.3472 93.2373 73.9413 92.8269 72.6151 92.223C73.115 94.7057 73.835 97.1389 74.7665 99.4939C76.4926 100.554 78.3003 101.475 80.1725 102.249C78.6228 102.247 77.0827 102.005 75.6076 101.53C76.6699 103.85 77.9343 106.073 79.3863 108.173C79.6483 108.551 79.9226 108.916 80.1969 109.282C82.0181 109.988 83.8931 110.547 85.8039 110.952C84.4435 111.234 83.0483 111.308 81.6657 111.171C83.3392 113.21 85.1978 115.089 87.2179 116.784C89.4629 117.115 91.7348 117.225 94.0012 117.114C92.5684 117.833 91.0256 118.309 89.4363 118.521C90.3566 119.198 91.3074 119.856 92.3069 120.478C93.4527 121.197 94.6595 121.867 95.9271 122.501C98.6385 123.008 101.4 123.199 104.155 123.068C102.912 123.71 101.575 124.151 100.193 124.372C100.596 124.525 100.998 124.677 101.412 124.817C103.208 125.441 105.04 125.958 106.897 126.365C108.99 126.852 111.121 127.16 113.266 127.285C113.925 125.239 114.402 123.138 114.693 121.008C114.974 119.136 115.145 117.25 115.204 115.358C115.204 114.926 115.204 114.499 115.204 114.072C114.49 115.279 113.593 116.368 112.547 117.302Z" fill="white"/>
</mask>
<g mask="url(#mask0_3_79345)">
<path d="M106.524 83.9215L105.914 83.8484C105.208 91.403 102.533 98.6403 98.1559 104.838L92.7499 96.9702C100.161 86.6641 99.2346 73.4144 99.2285 73.2803H98.6191C98.6191 73.4144 99.5272 86.2863 92.3721 96.3912L87.5634 89.3945C94.944 79.0336 87.9595 64.3638 87.8925 64.2176L87.3379 64.4735C87.4049 64.6137 94.1334 78.7472 87.1672 88.8216L82.0051 81.3252C84.7172 71.007 77.6779 58.0071 77.6047 57.873L77.0684 58.1595C77.1355 58.2875 83.8152 70.6413 81.5175 80.6183L70.8945 65.1622L70.3887 65.5096L81.0177 80.9656C70.8763 79.5395 61.7343 68.8739 61.6429 68.7764L61.1797 69.1786C61.2772 69.2944 70.9311 80.5207 81.4992 81.6787L86.6614 89.1812C74.7585 92.0823 63.971 80.7401 63.8674 80.6487L63.4286 81.0753C63.5383 81.1911 74.7159 92.9599 87.0514 89.7846L91.8662 96.7812C79.872 99.8286 68.1702 94.3921 68.0483 94.3434L67.8228 94.9529C67.9386 95.0138 80.0121 100.621 92.2563 97.3907L97.6683 105.186C90.3152 107.046 82.6029 106.945 75.301 104.893L75.1425 105.503C82.6251 107.606 90.5306 107.694 98.0584 105.759L102.13 111.677C90.1597 114.84 81.2798 113.541 81.1945 113.505L81.1396 114.114C81.2311 114.114 90.3182 115.467 102.52 112.201L106.957 118.655C96.9248 121.294 89.4954 120.209 89.4223 120.197L89.3674 120.806C89.4466 120.806 97.0893 121.94 107.347 119.197L111.046 124.579C107.482 125.586 103.766 125.943 100.076 125.633L100.033 126.243C100.234 126.273 104.909 126.901 111.442 125.121L118.646 135.604L119.152 135.257L111.942 124.871C115.934 119.417 117.025 114.809 117.074 114.614L116.464 114.431C115.438 117.989 113.778 121.331 111.564 124.299L107.871 118.923C114.106 110.324 115.794 102.784 115.794 102.711L115.184 102.528C115.184 102.602 113.52 109.927 107.462 118.375L103.032 111.89C110.455 101.669 112.46 92.7039 112.478 92.6125L111.869 92.4358C111.869 92.5272 109.882 101.279 102.642 111.329L98.5764 105.417C103.077 99.0794 105.819 91.6628 106.524 83.9215Z" fill="#B3C9F9"/>
</g>
<path opacity="0.1" d="M108.256 89.994C108.006 89.6039 107.769 89.2199 107.507 88.8421C106.069 86.7453 104.452 84.7775 102.674 82.9607C102.569 84.488 102.232 85.9904 101.674 87.4159C101.633 85.3916 101.429 83.3739 101.065 81.3822C99.2004 79.6689 97.1873 78.1249 95.0492 76.7686C95.1442 78.2239 95.0293 79.6854 94.7079 81.108C94.4012 79.2949 93.9633 77.5065 93.3976 75.7569C91.3387 74.5759 89.1909 73.557 86.9738 72.7096C87.251 73.8935 87.3759 75.1081 87.3456 76.3237C86.8008 74.8971 86.1699 73.505 85.4563 72.1549C83.696 71.5451 81.901 71.0404 80.0808 70.6435C77.9796 70.1594 75.8406 69.8576 73.6875 69.7415L113.254 127.299C113.913 125.253 114.39 123.152 114.68 121.022C114.961 119.15 115.132 117.264 115.192 115.372C115.192 114.939 115.192 114.513 115.192 114.086C114.483 115.291 113.593 116.381 112.553 117.316C113.67 114.789 114.488 112.14 114.991 109.424C114.857 108.014 114.654 106.647 114.381 105.322C114.162 104.164 113.888 103.049 113.583 101.946C112.817 103.353 111.82 104.622 110.633 105.7C111.549 103.624 112.261 101.465 112.76 99.2517C111.896 96.7586 110.807 94.3494 109.506 92.0539C109.138 93.3948 108.566 94.6712 107.811 95.8387C108.118 93.9058 108.267 91.9511 108.256 89.994Z" fill="#0046A0"/>
<path d="M278.294 170.515C281.05 170.622 283.81 170.405 286.515 169.869C287.775 169.227 288.976 168.544 290.117 167.821C291.111 167.211 292.055 166.523 292.97 165.84C291.378 165.642 289.831 165.178 288.392 164.469C290.659 164.561 292.929 164.431 295.17 164.079C297.169 162.365 299.005 160.469 300.655 158.417C299.274 158.564 297.879 158.503 296.517 158.234C298.425 157.813 300.296 157.239 302.112 156.515C302.38 156.144 302.654 155.778 302.91 155.4C304.33 153.293 305.568 151.068 306.609 148.751C305.15 149.21 303.629 149.447 302.099 149.452C303.966 148.664 305.766 147.726 307.481 146.648C308.391 144.277 309.088 141.829 309.565 139.334C308.248 139.961 306.845 140.39 305.403 140.608C306.978 139.656 308.483 138.593 309.907 137.427C310.253 135.076 310.416 132.702 310.394 130.327C309.409 131.022 308.338 131.586 307.207 132.003C308.337 130.978 309.402 129.883 310.394 128.724C310.315 126.861 310.126 125.005 309.827 123.165C309.511 121.033 309.009 118.933 308.328 116.888C306.176 117.024 304.039 117.344 301.941 117.845C300.124 118.259 298.333 118.78 296.578 119.405C295.885 120.761 295.274 122.157 294.749 123.586C294.705 122.372 294.82 121.157 295.09 119.972C292.88 120.844 290.741 121.885 288.691 123.086C288.14 124.841 287.718 126.633 287.43 128.449C287.09 127.032 286.961 125.572 287.046 124.116C284.922 125.493 282.924 127.053 281.073 128.779C280.71 130.772 280.506 132.792 280.463 134.818C279.892 133.399 279.542 131.901 279.427 130.375C277.667 132.209 276.068 134.191 274.649 136.299C274.393 136.677 274.155 137.067 273.912 137.457C273.92 139.412 274.089 141.363 274.417 143.29C273.656 142.126 273.075 140.854 272.693 139.517C271.411 141.822 270.344 144.239 269.505 146.739C270.019 148.949 270.747 151.102 271.681 153.169C270.486 152.104 269.479 150.845 268.701 149.446C268.408 150.549 268.14 151.67 267.933 152.828C267.681 154.157 267.496 155.526 267.378 156.936C267.897 159.647 268.731 162.288 269.865 164.804C268.813 163.882 267.912 162.8 267.195 161.598C267.195 162.025 267.195 162.451 267.226 162.884C267.3 164.775 267.487 166.66 267.786 168.528C268.096 170.655 268.592 172.752 269.267 174.793C271.412 174.651 273.541 174.325 275.63 173.818C277.473 173.394 279.288 172.861 281.067 172.221C281.473 172.075 281.879 171.923 282.286 171.764C280.897 171.563 279.549 171.141 278.294 170.515Z" fill="#6E7FDD"/>
<mask id="mask1_3_79345" style="mask-type:luminance" maskUnits="userSpaceOnUse" x="267" y="116" width="44" height="59">
<path d="M278.294 170.517C281.05 170.625 283.81 170.408 286.515 169.871C287.775 169.229 288.976 168.547 290.117 167.823C291.111 167.214 292.055 166.525 292.97 165.843C291.378 165.644 289.831 165.181 288.392 164.471C290.659 164.564 292.929 164.433 295.17 164.081C297.169 162.367 299.005 160.472 300.655 158.419C299.274 158.567 297.879 158.505 296.517 158.237C298.425 157.816 300.296 157.241 302.112 156.518C302.38 156.146 302.654 155.78 302.91 155.403C304.33 153.295 305.568 151.071 306.609 148.753C305.15 149.213 303.629 149.449 302.099 149.454C303.966 148.666 305.766 147.729 307.481 146.651C308.391 144.279 309.088 141.832 309.565 139.337C308.248 139.963 306.845 140.393 305.403 140.611C306.978 139.659 308.483 138.596 309.907 137.429C310.253 135.079 310.416 132.705 310.394 130.329C309.409 131.025 308.338 131.588 307.207 132.005C308.337 130.981 309.402 129.886 310.394 128.726C310.315 126.864 310.126 125.008 309.827 123.168C309.511 121.036 309.009 118.936 308.328 116.891C306.176 117.026 304.039 117.347 301.941 117.847C300.124 118.262 298.333 118.783 296.578 119.408C295.885 120.763 295.274 122.159 294.749 123.589C294.705 122.374 294.82 121.159 295.09 119.974C292.88 120.847 290.741 121.888 288.691 123.089C288.14 124.843 287.718 126.636 287.43 128.452C287.09 127.034 286.961 125.574 287.046 124.119C284.922 125.495 282.924 127.055 281.073 128.781C280.71 130.775 280.506 132.795 280.463 134.821C279.892 133.402 279.542 131.903 279.427 130.378C277.667 132.212 276.068 134.194 274.649 136.302C274.393 136.68 274.155 137.07 273.912 137.46C273.92 139.415 274.089 141.365 274.417 143.292C273.656 142.129 273.075 140.857 272.693 139.52C271.411 141.824 270.344 144.242 269.505 146.742C270.019 148.951 270.747 151.105 271.681 153.172C270.486 152.106 269.479 150.848 268.701 149.448C268.408 150.551 268.14 151.673 267.933 152.831C267.681 154.159 267.496 155.528 267.378 156.938C267.897 159.649 268.731 162.29 269.865 164.807C268.813 163.884 267.912 162.802 267.195 161.601C267.195 162.027 267.195 162.454 267.226 162.887C267.3 164.778 267.487 166.662 267.786 168.53C268.096 170.658 268.592 172.754 269.267 174.796C271.412 174.654 273.541 174.328 275.63 173.821C277.473 173.397 279.288 172.863 281.067 172.224C281.473 172.077 281.879 171.925 282.286 171.767C280.897 171.565 279.549 171.144 278.294 170.517Z" fill="white"/>
</mask>
<g mask="url(#mask1_3_79345)">
<path d="M307.147 152.682L306.982 152.073C299.7 154.189 291.99 154.359 284.621 152.566L289.96 144.643C302.265 147.758 314.253 142.047 314.375 141.986L314.137 141.413C314.022 141.468 302.375 147.02 290.368 144.064L295.116 137.025C307.482 140.072 318.55 128.224 318.66 128.102L318.221 127.682C318.111 127.798 307.427 139.262 295.506 136.446L300.595 128.895C311.188 127.645 320.707 116.327 320.805 116.212L320.342 115.816C320.25 115.925 311.2 126.67 301.071 128.188L311.559 112.64L311.054 112.299L300.565 127.846C298.182 117.894 304.752 105.479 304.831 105.351L304.288 105.071C304.221 105.199 297.298 118.266 300.101 128.553L295.012 136.105C287.955 126.097 294.555 111.903 294.628 111.757L294.068 111.507C294.001 111.659 287.144 126.365 294.622 136.684L289.875 143.723C282.634 133.685 283.408 120.801 283.42 120.667H282.811C282.811 120.801 281.994 134.075 289.515 144.302L284.176 152.225C279.752 146.065 277.02 138.853 276.253 131.308L275.644 131.381C276.422 139.115 279.236 146.505 283.798 152.798L279.788 158.752C272.474 148.775 270.414 140.042 270.396 139.95L269.787 140.139C269.787 140.225 271.889 149.171 279.398 159.325L275.022 165.822C268.891 157.454 267.172 150.147 267.16 150.067L266.55 150.256C266.55 150.329 268.324 157.856 274.632 166.395L270.975 171.807C268.731 168.859 267.036 165.531 265.971 161.982L265.362 162.171C265.411 162.366 266.538 166.962 270.585 172.38L263.473 182.924L263.979 183.265L271.091 172.721C277.624 174.44 282.311 173.769 282.506 173.739L282.457 173.13C278.773 173.472 275.057 173.148 271.487 172.173L275.144 166.761C285.426 169.412 293.062 168.223 293.135 168.211L293.08 167.602C293.007 167.602 285.584 168.76 275.534 166.212L279.91 159.715C292.136 162.872 301.211 161.458 301.302 161.44L301.247 160.831C301.156 160.831 292.294 162.226 280.3 159.167L284.31 153.212C291.836 155.051 299.714 154.868 307.147 152.682Z" fill="#B3C9F9"/>
</g>
<path opacity="0.1" d="M302.13 156.515C302.398 156.144 302.672 155.778 302.928 155.4C304.348 153.293 305.586 151.068 306.627 148.751C305.168 149.21 303.648 149.447 302.117 149.452C303.984 148.664 305.784 147.726 307.499 146.648C308.409 144.277 309.106 141.829 309.583 139.334C308.266 139.961 306.863 140.39 305.421 140.608C306.996 139.656 308.501 138.593 309.925 137.427C310.271 135.076 310.434 132.702 310.412 130.327C309.422 131.024 308.344 131.587 307.206 132.003C308.337 130.978 309.402 129.883 310.394 128.724C310.315 126.861 310.126 125.005 309.827 123.165C309.511 121.033 309.009 118.933 308.328 116.888L269.273 174.787C271.418 174.645 273.547 174.319 275.636 173.812C277.478 173.388 279.294 172.855 281.073 172.215C281.479 172.069 281.885 171.916 282.292 171.758C280.91 171.548 279.571 171.121 278.324 170.49C281.08 170.598 283.84 170.381 286.546 169.844C287.805 169.202 289.006 168.52 290.148 167.796C291.141 167.187 292.086 166.498 293 165.816C291.408 165.617 289.861 165.154 288.423 164.444C290.689 164.537 292.959 164.406 295.2 164.054C297.199 162.34 299.035 160.445 300.685 158.392C299.304 158.54 297.909 158.478 296.547 158.21C298.45 157.796 300.317 157.23 302.13 156.515Z" fill="#0046A0"/>
<path d="M178 221.395C255.32 221.395 318 216.74 318 210.998C318 205.255 255.32 200.6 178 200.6C100.68 200.6 38 205.255 38 210.998C38 216.74 100.68 221.395 178 221.395Z" fill="#EDF0FC"/>
<path d="M281.859 46.1227H104.213V205.485H281.859V46.1227Z" fill="#F5F9FF"/>
<path d="M281.859 46.1227H104.213V64.9673H281.859V46.1227Z" fill="#D0DBF7"/>
<path d="M118.547 55.5471C118.547 56.2631 118.335 56.963 117.937 57.5584C117.539 58.1537 116.974 58.6177 116.312 58.8917C115.651 59.1657 114.923 59.2374 114.221 59.0978C113.518 58.9581 112.873 58.6133 112.367 58.107C111.861 57.6007 111.516 56.9556 111.376 56.2534C111.237 55.5511 111.308 54.8232 111.582 54.1617C111.856 53.5002 112.32 52.9348 112.916 52.537C113.511 52.1392 114.211 51.9269 114.927 51.9269C115.887 51.9269 116.808 52.3083 117.487 52.9872C118.166 53.6661 118.547 54.587 118.547 55.5471Z" fill="#EB725F"/>
<path d="M130.738 55.5471C130.738 56.2631 130.526 56.963 130.128 57.5584C129.731 58.1537 129.165 58.6177 128.504 58.8917C127.842 59.1657 127.114 59.2374 126.412 59.0978C125.71 58.9581 125.065 58.6133 124.558 58.107C124.052 57.6007 123.707 56.9556 123.568 56.2534C123.428 55.5511 123.5 54.8232 123.774 54.1617C124.048 53.5002 124.512 52.9348 125.107 52.537C125.702 52.1392 126.402 51.9269 127.118 51.9269C128.078 51.9269 128.999 52.3083 129.678 52.9872C130.357 53.6661 130.738 54.587 130.738 55.5471Z" fill="#F9AB43"/>
<path d="M142.926 55.5471C142.926 56.2631 142.714 56.963 142.316 57.5584C141.918 58.1537 141.353 58.6177 140.691 58.8917C140.03 59.1657 139.302 59.2374 138.6 59.0978C137.897 58.9581 137.252 58.6133 136.746 58.107C136.24 57.6007 135.895 56.9556 135.755 56.2534C135.615 55.5511 135.687 54.8232 135.961 54.1617C136.235 53.5002 136.699 52.9348 137.294 52.537C137.89 52.1392 138.59 51.9269 139.306 51.9269C139.781 51.9269 140.252 52.0205 140.691 52.2024C141.13 52.3844 141.529 52.6511 141.866 52.9872C142.202 53.3234 142.468 53.7225 142.65 54.1617C142.832 54.6009 142.926 55.0717 142.926 55.5471Z" fill="#6E7FDD"/>
<path d="M255.829 119.384C256.682 117.22 255.481 115.459 253.159 115.459H167.639C166.411 115.521 165.223 115.92 164.206 116.612C163.189 117.305 162.382 118.263 161.874 119.384L142.919 167.446C142.066 169.604 143.267 171.371 145.589 171.371H231.097C232.325 171.309 233.513 170.91 234.53 170.217C235.547 169.525 236.354 168.566 236.862 167.446L255.829 119.384Z" fill="#FFCF74"/>
<path d="M138.827 163.35L157.782 115.282C158.29 114.161 159.097 113.203 160.114 112.51C161.131 111.818 162.319 111.419 163.547 111.357H230.674V107.091C230.67 105.973 230.225 104.902 229.435 104.112C228.645 103.322 227.574 102.876 226.456 102.873H196.513C195.252 102.803 194.027 102.429 192.942 101.784C191.856 101.139 190.943 100.241 190.278 99.1675L186.201 91.6528C185.538 90.5787 184.626 89.6807 183.541 89.0355C182.457 88.3902 181.232 88.0169 179.972 87.9473H141.497C140.379 87.9505 139.308 88.3958 138.518 89.1861C137.728 89.9763 137.283 91.0472 137.279 92.1648V163.045C137.288 164.019 137.629 164.96 138.247 165.713C138.864 166.466 139.721 166.985 140.674 167.184C138.907 166.818 138.084 165.233 138.827 163.35Z" fill="#FFCF74"/>
<path d="M200.957 128.755C197.804 128.755 194.721 129.69 192.099 131.442C189.478 133.194 187.434 135.684 186.227 138.597C185.021 141.511 184.705 144.716 185.32 147.809C185.935 150.902 187.454 153.743 189.683 155.972C191.913 158.202 194.754 159.721 197.847 160.336C200.94 160.951 204.145 160.635 207.059 159.429C209.972 158.222 212.462 156.178 214.214 153.556C215.966 150.934 216.901 147.852 216.901 144.699C216.901 140.47 215.221 136.415 212.231 133.425C209.241 130.435 205.186 128.755 200.957 128.755ZM208.758 150.202L206.461 152.5L200.976 147.015L195.49 152.5L193.193 150.202L198.678 144.717L193.193 139.232L195.49 136.934L200.976 142.419L206.461 136.934L208.758 139.232L203.273 144.717L208.758 150.202Z" fill="#EB725F"/>
<path d="M101.617 213.616C127.147 213.616 147.844 210.236 147.844 206.065C147.844 201.895 127.147 198.514 101.617 198.514C76.0856 198.514 55.3887 201.895 55.3887 206.065C55.3887 210.236 76.0856 213.616 101.617 213.616Z" fill="#EB725F"/>
<path d="M114.614 111.185H88.6199L68.666 204.433C79.5137 206.644 90.5441 207.838 101.614 207.998C101.614 207.998 118.014 207.998 134.561 204.433L114.614 111.185Z" fill="#FFCF74"/>
<path d="M101.613 113.165C108.789 113.165 114.607 112.278 114.607 111.184C114.607 110.091 108.789 109.204 101.613 109.204C94.4367 109.204 88.6191 110.091 88.6191 111.184C88.6191 112.278 94.4367 113.165 101.613 113.165Z" fill="#EB725F"/>
<mask id="mask2_3_79345" style="mask-type:luminance" maskUnits="userSpaceOnUse" x="68" y="111" width="67" height="98">
<path d="M114.61 111.188H88.616L68.6621 204.436C79.5097 206.647 90.5402 207.841 101.61 208.001C101.61 208.001 118.01 208.001 134.557 204.436L114.61 111.188Z" fill="white"/>
</mask>
<g mask="url(#mask2_3_79345)">
<path d="M101.047 200.313C74.2973 200.313 56.2327 195.84 55.1113 195.553L58.8352 180.926C59.213 181.024 97.7677 190.47 144.818 180.853L147.866 195.663C132.455 198.781 116.77 200.339 101.047 200.313Z" fill="#F9AB43"/>
<path d="M101.047 167.413C74.2973 167.413 56.2327 162.94 55.1113 162.653L58.8352 148.026C59.213 148.124 97.7677 157.57 144.818 147.953L147.866 162.763C132.455 165.881 116.77 167.439 101.047 167.413Z" fill="#F9AB43"/>
<path d="M101.047 134.517C74.2973 134.517 56.2327 130.043 55.1113 129.757L58.8352 115.13C59.213 115.227 97.7677 124.68 144.818 115.057L147.866 129.873C132.454 132.986 116.769 134.542 101.047 134.517Z" fill="#F9AB43"/>
</g>
<path opacity="0.1" d="M117.859 156.164C117.859 176.434 113.666 194.749 106.889 207.828C116.182 207.424 125.428 206.28 134.54 204.409L114.617 111.185H109.96C114.903 123.502 117.859 139.141 117.859 156.164Z" fill="#0046A0"/>
<g opacity="0.3">
<path d="M90.038 125.568L88.6119 132.437C87.4701 137.942 86.3284 143.446 85.1867 148.947C83.8052 155.639 82.4197 162.329 81.0301 169.017L77.4404 186.283C76.8309 189.074 76.1483 191.866 75.7034 194.681C75.7034 194.718 75.7034 194.761 75.7034 194.797C75.228 197.101 78.8178 197.753 79.2932 195.455L80.7193 188.587C81.857 183.085 82.9987 177.582 84.1445 172.076C85.53 165.388 86.9175 158.699 88.3071 152.007C89.4936 146.253 90.6861 140.498 91.8847 134.74C92.4941 131.949 93.1767 129.158 93.6277 126.342C93.6255 126.303 93.6255 126.265 93.6277 126.226C94.1031 123.922 90.5134 123.27 90.038 125.568Z" fill="white"/>
</g>
<path d="M270.806 181.202L184.775 205.398L186.261 210.681L272.292 186.485L270.806 181.202Z" fill="#6E7FDD"/>
<path d="M272.256 180.474L232.961 191.689L234.471 196.981L273.767 185.766L272.256 180.474Z" fill="#EB725F"/>
<path d="M275.06 212.653C290.295 211.434 301.657 198.096 300.438 182.862C299.219 167.627 285.881 156.266 270.647 157.484C255.412 158.703 244.05 172.041 245.269 187.275C246.488 202.51 259.826 213.872 275.06 212.653Z" fill="#EB725F"/>
<path d="M293.307 192.156C298.301 180.957 293.27 167.83 282.07 162.836C270.871 157.843 257.744 162.874 252.75 174.074C247.757 185.273 252.788 198.4 263.987 203.393C275.187 208.387 288.314 203.356 293.307 192.156Z" fill="#D0DBF7"/>
<path d="M289.712 178.324L287.097 179.091C286.029 175.37 283.529 172.223 280.146 170.342C276.762 168.46 272.77 167.997 269.045 169.054L268.289 166.409C272.71 165.159 277.445 165.712 281.46 167.945C285.474 170.177 288.441 173.909 289.712 178.324Z" fill="white"/>
<path d="M252.458 45.1164L226.056 37.1141L210.18 89.4793L251.209 101.918L262.776 63.7599L252.458 45.1164Z" fill="#E2E6FF"/>
<path d="M249.795 65.8226L247.906 62.2938L239.453 66.81L234.931 58.3567L231.408 60.246L235.924 68.6993L227.471 73.2154L229.36 76.7442L237.813 72.2281L242.329 80.6814L245.858 78.792L241.342 70.3388L249.795 65.8226Z" fill="#CAD2F9"/>
<path d="M182.394 9.26367L155.59 15.791L168.541 68.9607L210.192 58.8131L200.757 20.0756L182.394 9.26367Z" fill="#E2E6FF"/>
<path d="M190.623 28.4436L187.204 26.3654L182.225 34.5566L174.033 29.5711L171.955 32.9902L180.146 37.9696L175.161 46.1607L178.58 48.239L183.565 40.0539L191.75 45.0332L193.835 41.6142L185.644 36.6348L190.623 28.4436Z" fill="#CAD2F9"/>
<path d="M276.333 14.0472H269.519V7.2334H267.093V14.0472H260.279V16.4729H267.093V23.2867H269.519V16.4729H276.333V14.0472Z" fill="#E2E6FF"/>
<path d="M291.592 37.4956H287.88V33.7839H286.557V37.4956H282.846V38.8181H286.557V42.5297H287.88V38.8181H291.592V37.4956Z" fill="#E2E6FF"/>
<path d="M250.629 31.0204H246.138V26.5226H244.535V31.0204H240.043V32.6172H244.535V37.1151H246.138V32.6172H250.629V31.0204Z" fill="#E2E6FF"/>
<path d="M80.4615 30.3206H73.6477V23.5068H71.222V30.3206H64.4082V32.7463H71.222V39.5601H73.6477V32.7463H80.4615V30.3206Z" fill="#E2E6FF"/>
<path d="M110.203 26.2506H106.491V22.5389H105.168V26.2506H101.463V27.5731H105.168V31.2847H106.491V27.5731H110.203V26.2506Z" fill="#E2E6FF"/>
<path d="M87.612 56.5226H83.1142V52.0248H81.5174V56.5226H77.0195V58.1194H81.5174V62.6173H83.1142V58.1194H87.612V56.5226Z" fill="#E2E6FF"/>
<path d="M236.831 2.79839C236.831 3.09157 236.744 3.37814 236.581 3.62182C236.418 3.8655 236.186 4.05532 235.915 4.16723C235.644 4.27914 235.346 4.30811 235.059 4.25047C234.772 4.19283 234.508 4.05117 234.301 3.84344C234.094 3.63571 233.953 3.37125 233.897 3.08357C233.84 2.79588 233.871 2.49791 233.984 2.2274C234.097 1.95689 234.287 1.72602 234.532 1.56402C234.776 1.40202 235.063 1.31619 235.356 1.3174C235.748 1.31901 236.123 1.47575 236.4 1.75332C236.676 2.03088 236.831 2.40666 236.831 2.79839Z" fill="#CAD2F9"/>
<path d="M303.552 55.8811C303.552 56.4344 303.388 56.9752 303.08 57.4352C302.773 57.8953 302.336 58.2538 301.825 58.4656C301.314 58.6773 300.751 58.7327 300.209 58.6248C299.666 58.5168 299.168 58.2504 298.776 57.8592C298.385 57.4679 298.119 56.9695 298.011 56.4268C297.903 55.8842 297.958 55.3217 298.17 54.8105C298.382 54.2994 298.74 53.8625 299.2 53.5551C299.66 53.2477 300.201 53.0836 300.754 53.0836C301.122 53.0828 301.486 53.1546 301.826 53.2949C302.166 53.4352 302.474 53.6413 302.734 53.9012C302.994 54.1611 303.2 54.4698 303.341 54.8096C303.481 55.1493 303.553 55.5135 303.552 55.8811Z" fill="#CAD2F9"/>
<path d="M214.989 18.1747C214.989 18.4664 214.902 18.7516 214.74 18.9941C214.578 19.2367 214.348 19.4257 214.078 19.5374C213.809 19.649 213.512 19.6782 213.226 19.6213C212.94 19.5644 212.677 19.4239 212.471 19.2176C212.265 19.0114 212.124 18.7486 212.067 18.4625C212.01 18.1764 212.04 17.8798 212.151 17.6103C212.263 17.3408 212.452 17.1105 212.695 16.9484C212.937 16.7863 213.222 16.6998 213.514 16.6998C213.708 16.6998 213.899 16.738 214.078 16.8121C214.257 16.8862 214.42 16.9949 214.557 17.1318C214.694 17.2688 214.802 17.4314 214.877 17.6103C214.951 17.7893 214.989 17.981 214.989 18.1747Z" fill="#CAD2F9"/>
<path d="M130.864 2.79744C130.864 3.35072 130.7 3.89157 130.393 4.35161C130.086 4.81165 129.649 5.17021 129.138 5.38194C128.626 5.59367 128.064 5.64907 127.521 5.54113C126.979 5.43319 126.48 5.16676 126.089 4.77553C125.698 4.3843 125.431 3.88584 125.323 3.34319C125.215 2.80054 125.271 2.23807 125.482 1.7269C125.694 1.21574 126.053 0.778839 126.513 0.471452C126.973 0.164065 127.514 0 128.067 0C128.808 0.00161007 129.519 0.296856 130.043 0.82113C130.568 1.3454 130.863 2.05601 130.864 2.79744Z" fill="#CAD2F9"/>
<path d="M141.733 32.4284C141.733 32.7201 141.647 33.0053 141.484 33.2478C141.322 33.4904 141.092 33.6794 140.823 33.791C140.553 33.9027 140.256 33.9319 139.97 33.875C139.684 33.818 139.421 33.6776 139.215 33.4713C139.009 33.265 138.868 33.0022 138.812 32.7161C138.755 32.43 138.784 32.1335 138.895 31.864C139.007 31.5945 139.196 31.3641 139.439 31.2021C139.681 31.04 139.966 30.9535 140.258 30.9535C140.649 30.9535 141.024 31.1089 141.301 31.3855C141.578 31.6621 141.733 32.0372 141.733 32.4284Z" fill="#CAD2F9"/>
<path d="M55.419 61.0362C55.419 61.3291 55.3322 61.6154 55.1694 61.859C55.0067 62.1025 54.7754 62.2924 54.5048 62.4044C54.2342 62.5165 53.9364 62.5459 53.6491 62.4887C53.3618 62.4316 53.0979 62.2905 52.8908 62.0834C52.6837 61.8763 52.5426 61.6124 52.4855 61.3251C52.4283 61.0378 52.4577 60.74 52.5698 60.4694C52.6819 60.1988 52.8717 59.9675 53.1152 59.8048C53.3588 59.642 53.6451 59.5552 53.938 59.5552C54.1327 59.5544 54.3257 59.5921 54.5057 59.6663C54.6858 59.7404 54.8494 59.8495 54.9871 59.9872C55.1247 60.1248 55.2338 60.2884 55.3079 60.4685C55.3821 60.6485 55.4198 60.8415 55.419 61.0362Z" fill="#CAD2F9"/>
</svg>
