<svg width="41" height="40" viewBox="0 0 41 40" fill="none" xmlns="http://www.w3.org/2000/svg">
<path d="M20.5455 0H20.4545C9.43391 0 0.5 8.93391 0.5 19.9545V20.0455C0.5 31.0661 9.43391 40 20.4545 40H20.5455C31.5661 40 40.5 31.0661 40.5 20.0455V19.9545C40.5 8.93391 31.5661 0 20.5455 0Z" fill="#00E510"/>
<path d="M24.395 25.8498C19.2757 25.8498 15.1108 21.6836 15.1094 16.5645C15.1108 15.2669 16.1674 14.2117 17.4623 14.2117C17.5955 14.2117 17.7272 14.2229 17.8533 14.2453C18.1308 14.2915 18.3942 14.3854 18.6367 14.527C18.6717 14.548 18.6955 14.5816 18.7011 14.6209L19.2421 18.0303C19.2491 18.071 19.2365 18.1102 19.2099 18.1396C18.9114 18.4704 18.5302 18.7086 18.1056 18.8277L17.901 18.8852L17.978 19.0827C18.6759 20.8597 20.0969 22.2792 21.8753 22.9799L22.0729 23.0584L22.1304 22.8538C22.2495 22.4292 22.4877 22.048 22.8184 21.7495C22.8423 21.7271 22.8745 21.7159 22.9067 21.7159C22.9137 21.7159 22.9208 21.7159 22.9292 21.7173L26.3387 22.2582C26.3794 22.2652 26.413 22.2876 26.434 22.3227C26.5742 22.5651 26.6681 22.8299 26.7157 23.1074C26.7382 23.2307 26.748 23.3611 26.748 23.497C26.748 24.7932 25.6927 25.8484 24.395 25.8498Z" fill="#FDFDFD"/>
<path d="M33.4758 18.8799C33.1998 15.7605 31.7703 12.8667 29.451 10.7324C27.1177 8.58557 24.0907 7.40283 20.9249 7.40283C13.9768 7.40283 8.32361 13.0559 8.32361 20.0037C8.32361 22.3356 8.96684 24.6071 10.1847 26.5858L7.46875 32.5976L16.1644 31.6713C17.6765 32.2907 19.2769 32.6046 20.9235 32.6046C21.3566 32.6046 21.8008 32.5822 22.2465 32.536C22.6389 32.4939 23.0355 32.4323 23.425 32.3538C29.2436 31.1781 33.4912 26.0141 33.5249 20.071V20.0037C33.5249 19.6254 33.5081 19.247 33.4744 18.8799H33.4758ZM16.4993 29.0326L11.6884 29.5455L13.1248 26.363L12.8375 25.9777C12.8165 25.9496 12.7955 25.9216 12.7716 25.8894C11.5244 24.1671 10.8657 22.1324 10.8657 20.0051C10.8657 14.4586 15.3782 9.94627 20.9249 9.94627C26.1213 9.94627 30.5259 14.0004 30.9505 19.1755C30.9729 19.453 30.9856 19.7319 30.9856 20.0065C30.9856 20.085 30.9841 20.1621 30.9827 20.2448C30.8762 24.8846 27.6348 28.8252 23.0999 29.8286C22.7538 29.9056 22.3992 29.9645 22.0461 30.0023C21.6789 30.0444 21.3019 30.0654 20.9277 30.0654C19.595 30.0654 18.3001 29.8075 17.0767 29.2975C16.9408 29.2428 16.8076 29.1839 16.6829 29.1237L16.5007 29.0354L16.4993 29.0326Z" fill="#FDFDFD"/>
</svg>
