<svg width="111" height="78" viewBox="0 0 111 78" fill="none" xmlns="http://www.w3.org/2000/svg">
<path fill-rule="evenodd" clip-rule="evenodd" d="M19.489 29.3658L18.5111 29.4201L17.9678 30.2351L0.961676 55.7478C0.361628 56.648 0.604943 57.8642 1.50514 58.4642C2.40533 59.0643 3.62152 58.8209 4.22156 57.9207L20.6845 33.2231L50.3204 31.5748L51.2983 31.5204L51.8416 30.7054L68.3045 6.00773L97.9404 4.35945C99.0206 4.29938 99.8475 3.37502 99.7874 2.29483C99.7274 1.21465 98.803 0.38769 97.7228 0.447769L67.109 2.15043L66.1311 2.20482L65.5878 3.01979L49.1249 27.7175L19.489 29.3658ZM30.1807 48.0736L29.2028 48.128L28.6596 48.943L11.6534 74.4556C11.0534 75.3558 11.2967 76.572 12.1969 77.1721C13.0971 77.7721 14.3133 77.5288 14.9133 76.6286L31.3762 51.9309L61.0121 50.2826L61.99 50.2282L62.5333 49.4133L78.9962 24.7156L108.632 23.0673C109.712 23.0072 110.539 22.0829 110.479 21.0027C110.419 19.9225 109.495 19.0955 108.415 19.1556L77.8007 20.8583L76.8228 20.9127L76.2796 21.7276L59.8166 46.4253L30.1807 48.0736Z" fill="#E6E6E6"/>
</svg>
